/* XPM */
static char *_c3a2e5057f244c89fbafe9ab9fdbc45[] = {
/* columns rows colors chars-per-pixel */
"64 64 184 2 ",
"   c #000001",
".  c #0B0102",
"X  c #130102",
"o  c #1B0202",
"O  c #240202",
"+  c #2B0303",
"@  c #340303",
"#  c #3B0404",
"$  c #440405",
"%  c #4B0505",
"&  c #450708",
"*  c #4B0608",
"=  c #44090A",
"-  c #4A0A0B",
";  c #530606",
":  c #5B0606",
">  c #520807",
",  c #5B0806",
"<  c #540709",
"1  c #5C0709",
"2  c #53090A",
"3  c #5B0A0A",
"4  c #630606",
"5  c #6E0404",
"6  c #620807",
"7  c #6C0807",
"8  c #630708",
"9  c #6D0709",
"0  c #64090A",
"q  c #6B0909",
"w  c #760706",
"e  c #750907",
"r  c #71070B",
"t  c #7B0509",
"y  c #730909",
"u  c #7C0A0B",
"i  c #6D100B",
"p  c #77100B",
"a  c #7D1311",
"s  c #840B0C",
"d  c #8C0C0D",
"f  c #9D0308",
"g  c #930D0D",
"h  c #9B0D0D",
"j  c #92100E",
"k  c #9C110F",
"l  c #8B0F10",
"z  c #9C0F11",
"x  c #851212",
"c  c #8B1213",
"v  c #941212",
"b  c #9C1213",
"n  c #A9050E",
"m  c #A30E0E",
"M  c #AB0F0E",
"N  c #BF0000",
"B  c #B5060A",
"V  c #B20F0E",
"C  c #B90F0F",
"Z  c #A2110F",
"A  c #AC100F",
"S  c #B3100F",
"D  c #BB100F",
"F  c #A40F10",
"G  c #AB0F10",
"H  c #B30F11",
"J  c #BC0F10",
"K  c #A41312",
"L  c #AD1112",
"P  c #B41111",
"I  c #BC1112",
"U  c #BD1815",
"Y  c #B21D19",
"T  c #87261E",
"R  c #B72F25",
"E  c #A73933",
"W  c #CC0206",
"Q  c #CD0309",
"!  c #C40B0F",
"~  c #CA0D0F",
"^  c #DC0606",
"/  c #D80208",
"(  c #D20D0E",
")  c #C3110F",
"_  c #C9100E",
"`  c #D5100F",
"'  c #D7190F",
"]  c #C20F11",
"[  c #CD0E12",
"{  c #D30E11",
"}  c #C41212",
"|  c #CB1312",
" . c #C11C15",
".. c #CE1915",
"X. c #D31313",
"o. c #DB1415",
"O. c #D31915",
"+. c #DA1916",
"@. c #D51719",
"#. c #D81618",
"$. c #D51819",
"%. c #DB1818",
"&. c #E21C0D",
"*. c #E41516",
"=. c #EA1616",
"-. c #E41B15",
";. c #EA1B16",
":. c #E61718",
">. c #EA1618",
",. c #E31919",
"<. c #EA1B1A",
"1. c #C3211B",
"2. c #C8271B",
"3. c #CE281D",
"4. c #DA2917",
"5. c #D5281D",
"6. c #DC2A1D",
"7. c #E42216",
"8. c #EA2316",
"9. c #E62E15",
"0. c #EB2C16",
"q. c #E42318",
"w. c #EB2319",
"e. c #E42A1B",
"r. c #EC2B1A",
"t. c #EC3417",
"y. c #EC3B17",
"u. c #E5351D",
"i. c #EB331A",
"p. c #EB3C1B",
"a. c #CA2A23",
"s. c #DF2D25",
"d. c #DA372C",
"f. c #C63B31",
"g. c #E33422",
"h. c #EA3621",
"j. c #E63E26",
"k. c #EA3B23",
"l. c #E23E2C",
"z. c #E93A2A",
"x. c #AF4538",
"c. c #EB4117",
"v. c #EA421C",
"b. c #E8481F",
"n. c #D6402D",
"m. c #DB503C",
"M. c #EA4324",
"N. c #E64924",
"B. c #EA4D26",
"V. c #EA432B",
"C. c #EB4C2D",
"Z. c #E9522E",
"A. c #E24637",
"S. c #E94A39",
"D. c #E85431",
"F. c #EA5C3C",
"G. c #D24E43",
"H. c #D45346",
"J. c #D85447",
"K. c #CD5A50",
"L. c #E34F43",
"P. c #E45343",
"I. c #E85843",
"U. c #E65848",
"Y. c #D86258",
"T. c #E76244",
"R. c #E86246",
"E. c #E9634E",
"W. c #E76950",
"Q. c #E86E56",
"!. c #E46E5E",
"~. c #D66962",
"^. c #DD6E64",
"/. c #DA7066",
"(. c #DD7865",
"). c #D87369",
"_. c #DB7E70",
"`. c #E47166",
"'. c #E77A67",
"]. c #EA7865",
"[. c #E67D6B",
"{. c #D2867F",
"}. c #E68474",
"|. c #E28479",
/* pixels */
"                                                                                                                                ",
"                                                                                                                                ",
"                                                              .                                                                 ",
"            . . . o .           .                                                       .   . .     . . .   .   . . .           ",
"d & . . . X @ $ v v +       * c z l h ..+.#.+.o.s.<.>.>.r.r.r.w.<.>.>.>.s.$.$.$.$.h # < y q u K b v P U } U l q y l K G U #...I ",
"q @ . X . O % o # & .   . @ q d s d } o.o.o.*.*.>.<.8.0.t.p.y.t.w.;.;.=.,.o.o.%.o.| s % 6 0 s m K Z m g G H d $ < l G | ,.@.] | ",
"q @ . X . o % O @ $ .   . @ q g d d } o.o.o.o.:.>.;.8.8.t.y.y.t.8.=.=.=.*.o.X.o.o.| s % 3 4 s m G m h g H H l % 1 s G | ,.X.] | ",
"$ O O , $ X @ O O # .   o , 7 g e L X.o.o.*.:.=.w.y.t.p.b.c.c.c.t.r.>.>.>.o.X.o.X.o.I e 7 , < u h M m d P } d $ ; l J X.J H @.:.",
"& + 6 P y $ u % O $ X X + , q s g | X.o.o.*.=.=.;.t.y.Z.B.c.b.y.0.w.=.=.=.*.o.` o.X.X.A e 0 + % m X.} s d m d > 0 m } J d m | | ",
"X . > d < % u > # 0 = X @ , q u H X.o.o.o.o.=.=.>.8.t.p.v.y.t.;.=.=.=.=.;.*.*.o.o.X.X.I d e $ $ z F e e h G g y g H h s d V ) M ",
". . % d < > u > # 0 $ X @ , 9 s J X.o.o.o.o.=.=.=.;.0.v.p.p.t.=.=.=.=.=.=.=.*.o.o.#.X.} d y $ $ z m e e h G g e g H h s d P } M ",
"  . + 4 $ + & @ o $ O . $ % , g | X.o.X.o.*.:.:.=.=.=.;.0.r.0.8.;.w.w.=.=.=.=.*.o.X.X.| m u % > g e s V H h h h G G g s h | *.} ",
"X o o 1 # O 1 $ . . @ 2 % O q L | { o.o.*.=.=.=.8.8.;.w.r.r.0.0.t.t.t.;.=.>.=.=.:.o.X.| J g % 5 G m d h h h J | X.X.P u d I } m ",
"6 6 . . . . @ +   . # u 1   y I | X.*.=.=.=.=.8.t.t.p.v.M.v.p.p.0.8.o.{ { *.=.:.:.*.X.| I h > 7 G z d g h M P M I | m u s g u e ",
"3 6 X . X . # +   . # u 1   u I | X.o.=.=.;.=.8.i.t.y.v.M.k.y.y.0.8.+.X.[ *.;.:.:.o.X.` P g < 7 M m d g h G P A D | F u s d u e ",
"q q X X     , 3 o o @ 1 # o s I X.o.*.=.*.*.X.X.:.;.0.M.Z.B.p.;.=.o.o.-.e.;.*.o.*.>.o.X.I h 6 < 7 d M h s F M m | o.} m I } h g ",
"@ # . . .   , 2 + # # % > % d } X.o.o.X.X.*.7.-.*.:.>.;.0.8.=.*.o.*.r.C.p.;.*.=.=.=.o.X.I h q , u } X.L u h F g M ) S A X.o.} X.",
"0 r o X O . . X X % % # $ 6 g } X.*.o.*.=.0.M.u.w.o.o.o.=.=.=.o.=.-.4.) [ o.=.=.=.=.*.*.| A s 5 h J | G t h m g I X.) h X.+.X.X.",
"0 y O X O . . X X % % # % 0 g } X.*.*.*.=.0.V.u.-.o.o.o.*.=.=.o.:.8.4.[ [ o.:.=.=.=.o.o.| M s 7 z I | L u h m g I X.} h | -.X.X.",
"% < X X @ X o o # Z k # @ u g [ X.*.*.=.=.O.) ..[ | X.*.;.r.-.=.o.C 3.e.,.I C o.=.*.>.:.X.A g s m | %.I d } #.M h d 7 u I X.| H ",
"% 7 O + % o   . + d s + $ d h | o.*.=.=.} A V.w.V.O._ ;.w.t.;.=.} } S.5.X.+.X.X.o.*.o.o.X.m h A I | M g M ..} F d 8 % , s F m h ",
"y k $ u L % X # X > 0 + + u h | o.*.*.X.| +.e.` *.8.;.=.=.;.=.>.;.;.=.-.7.8.;.;.:.*.o.` } h h M | | S } *.X.J h u u e u d h g g ",
"y h $ e L % o # X , 6 + O s h | *.*.o.X...+.e.( =.8.<.=.=.;.=.>.;.-.=.=.-.0.;.;.=.*.o.X.} h h V } | M | o.o.I m u u e e d g g g ",
"; e @ 3 s + X +   6 u @ O g m } X.o.*.q.y.p.M.p.r.0.t.=.=.=.=.=.8.8.=.=.=.;.w.8.=.=.=.| ) h h d I o.| } M M m g d h F F F g d s ",
"d $.s r L 7 6 s $ o @ . O z G I X.o.=.8.9.r.i.7.;.t.8.;.=.=.=.=.8.y.i.r.h.i.y.0.>.*.X.X.I m } A P | X.} d g H F d s d d g g g M ",
"s } e d X.u b %.s @ < O # I H I o.=.=.8.y.r.r.h.M.M.;.=.=.=.=.;.=.v.F.R.R.D.b.r.=.X.{ X.} H } I e $ s g y d m h d s s d g M _ *.",
"d } w d $.s K %.u @ < O # I P I o.:.=.0.p.0.r.u.M.v.;.=.=.=.>.=.;.v.F.R.T.Z.b.r.*.{ X.X.} H } I u & s g w g m z s s s d h M | o.",
", G y % t # , s $ O # X # I | J o.*.*.;.c.c.N.C.D.V.;.=.=.=.=.>.=.-.V.T.F.Z.Z.p.>.o.X.| } I C I 5 : d d s G X...M d ; ; u h } } ",
"l ,.h 4 D u       O * O o F o.| X.o.o.=.v.F.F.Z.h.;.=.*.r.p.8.*.=.*.*.7.9.i.u.8.:.X.X.| | I C I P ..K $ @ e v g d 9 # , z } } M ",
"% d : $ d 6       + 1 @ @ I o.[ ` o.X.*.w.k.k.q.( :.*.X.q.i.-.X.| [ o.| X.*.=.*.X.| _ | | } } } } | h +           + $ < y s s h ",
"; d ; $ d :       + 3 @ @ I o.| ..o.o.*.w.k.k.6.` :.o.X.q.i.-.X.| | o.X.{ =.*.=.X.| | | | ] } I C ..h +           + $ , e s s h ",
"@ d 0 o y , $ s % . + X X d | | X.X.X.o.:.=.o.I X.o.V h M C J m h H X.X.~ _ X.o.| } } } | } _ V g h g u >         + > 0 8 : 8 6 ",
"@ g y @ b s w X.F @ < @ O m | _ X.o.X.X.*.:.D } X.} D S M h g m P | X.X.X.C } X.} ) | | | I | h q s g g q .     . , d S P F g g ",
"X < # X > % & d q @ > @ + H | | X.X.o.X.X.} M | | } } | X.| ) ..o.o.( | | } C | | ~ X.X._ C } h $ $ : q % X     . , k } X...X.:.",
"X < $ X % % & d q @ > @ O G | | X.X.o.X.X.} M | | } } | X.} ) | o.o.X.X.X.I P | | | X.X._ D } g $ $ : 9 > X       3 k _ X.| X.*.",
"O d e . 4 q   # +   X . o h } | X.o.X.X.| M } X.| ) | o.=.*.*.*.>.o.| .._ | D | .._ X.X.| } m 7 > : 9 y * .       . @ 6 s M _ X.",
"X q <   < : . @ #   O X @ U O.| X.X.X.X.X.C X.X.| } | { { | [ } U P A P } | ) X.X._ o.X.] I M L J | P 6 X             # d | *.r.",
"# g s O 8 q o + + . # + O d S } | | X.*.o.o.o.` H g 1.J.)./.Y.{.`.U.2.w g X.X.o.X.X.o.X.I M g M | #.I <               o 6 z P J ",
"# j s O 8 q X + + . # + O d P } | ..` o.o.o.o.| H g 1.J.)./.Y.|.`.U.2.t d | X.X.X.X.o.X.D A h m | +.I <               o 0 z P ] ",
"% } I & F L + > 0 @ l y + g } I X._ X.*.*.*.=.| > 9 a.G.~.^.H.K.E T i o t >.o.>.o.o.:.X.H A L s q s u @                 + u g h ",
"O e 0 o < ,   o @ X u q o s P P _ X.X.X.*.=.=.o.%   @ ; % +   X > % O   L >.,.*.*.>.>.J A A Z e 0 s s % X               X % y m ",
"y P } $   .       @ g l X @ + e ) X.X.o.*.=.=.;.P % f Q } n h B W W Z g #.*.*.>.>.>.o.H M h 1 # O O o X .               X & s P ",
"q P U &   .       + g c X @ O u ) X.X.X.=.=.=.=.I % n Q ] M g B W N K k X.*.:.=.=.>.*.H m h 1 # O O o X .               X $ s P ",
"y I } * X O . . X % O.} + # O - m | o.o.;.i.=.=.o.! A.L.8.9.q.V.P.!.E.` ( *.=.=.=.=.| m m h $ @ X                         + 6 y ",
"% e s O   X   X O + d e   + @ O s I | X.*.0.8.=.X.( s.].'.[.}.|.|.E./ } | *.8.8.:.*.D m A L u 3 o                         O > : ",
"u I X.y O # . 2 s < g k # e F u s H | X.X.=.r.;.o.} ~ ^ -.e.z.g.&./ } D X.:.0.-.*.X.m A S P d q o                         o % g ",
"u I %.9 o # X < s , h b $ e F s u H } X.X.-.r.;.o.} ~ ^ 7.e.z.g.&./ } D X.=.0.-.*.X.M M P P d q o                         X % g ",
"& s z > @ $ O < u % g c @ s P g u F C | X.o.8.8.:.X.J C ) | } J D S D X.*.=.=.X.o.} M L S P % X                           . # g ",
"o X + o s K e 1 q $ O o   @ 8 % q h G I | X.=.8.=.:.| | | | | | _ X.X.*.=.>.o.| | V M P V } q @                           . O $ ",
"@ + & $  .i.L g I u + X   & s s g } m H } X.X.=.;.8.:.*.;.;.;.=.=.=.*.=.=.*.| | I M M A M o.6 , # + .                       X # ",
"@ + & $  .r.A d P u + .   $ d s g | m V } o.X.=.;.8.*.*.;.;.=.=.=.=.*.=.=.,.| | I M M M V %.4 , # O .                       X # ",
". + % # d L e 7 s * & O + 9 g g g X.J A I | X.*.;.w.*.=.0.0.=.=.=.=.*.=.:.| I } V G M M M #.; & % , * + +                     # ",
"o s } s u L y y h u g d d s u s s 5.X.C J D | X.-.:.:.=.0.r.=.:.:.o.o.o.| S I I M P P A D $.@ # # # @ O - > @ X .             + ",
"+ h #.d u I d g U g s q 8 1 r e t n.l.! I C ] } | X.X.X.o.o.X.| | } } C A V D A P P P C 6.Y . @ # # + . . & > % % & + .         ",
"+ h #.g u D d g I h u q 6 6 r u t d.l.! C I } | ) X.X.X.o.X.X.| | } ) I A V P A P S P C 6.L . # # @ @ . X % > > & & + .         ",
"  & e # & s g d 9 < & $ 2 0 q u w f.I.W } D C I I } } J J J I C C V m m M P S M P P D ..V.p o @ @ @ @ @ . @ % % ; y y 0 * @   # ",
": 9 g l d s q $ # $ % > 1 q y y 5 f.W.' J I P P H H H F m h F m h h h m M M m A P P ! S.H.2 @ + @ + # & + + 1 < , 6 q e u u x d ",
"h d u 7 , % # $ * % * < 6 5 y q ; R W.j.C H P K m m F m g g s s s d h h h h m M V B d.}.x.% # @ + @ # > % # : 1 < , 6 q , q e u ",
"g d s 7 , % # $ % * * > 6 q y 7 ; R Q.j.D H P L m m F m h d s s s d h h h h h M L B d.}.x.> # @ + @ # % & # 3 1 < 6 6 0 3 q u s ",
"0 > = - & & = - - 2 2 2 3 3 0 > @ b (.m.Y b K b v c c c c l x a a x l x x c c v b n _.{.a 2 - = + + @ = & - 2 0 > 3 3 3 3 3 3 1 ",
"                                                                                                                                ",
"                                                                                                                                ",
"                                                                                                                                ",
"                                                                                                                                "
};
