/* XPM */
static char *_576148586990[] = {
/* columns rows colors chars-per-pixel */
"64 64 239 2 ",
"   c black",
".  c #030F04",
"X  c #031002",
"o  c #163A0A",
"O  c #19321C",
"+  c #262813",
"@  c #1E2723",
"#  c #1A3C20",
"$  c #433C1B",
"%  c #2D4829",
"&  c #265B39",
"*  c #306F36",
"=  c #5C541F",
"-  c #625A1E",
";  c #6D621D",
":  c #76671F",
">  c #7A661E",
",  c #584F26",
"<  c #6A5D26",
"1  c #6D6129",
"2  c #766725",
"3  c #363579",
"4  c #3C3C7C",
"5  c #2F6E43",
"6  c #3F4079",
"7  c #4C5A5C",
"8  c #575A5D",
"9  c #52615F",
"0  c #545D63",
"q  c #45457D",
"w  c #515A70",
"e  c #4F6166",
"r  c #586466",
"t  c #666968",
"y  c #676A75",
"u  c #6A6E71",
"i  c #677171",
"p  c #697172",
"a  c #717574",
"s  c #84661F",
"d  c #89732B",
"f  c #977835",
"g  c #827862",
"h  c #3C8834",
"j  c #469B2D",
"k  c #4A9E30",
"l  c #4BA530",
"z  c #4EAB31",
"x  c #55BA36",
"c  c #5AC339",
"v  c #5DC93C",
"b  c #63C747",
"n  c #9F823D",
"m  c #A7803F",
"M  c #91825B",
"N  c #A88643",
"B  c #BA914E",
"V  c #95897B",
"C  c #C79A4F",
"Z  c #C79757",
"A  c #C69955",
"S  c #C99955",
"D  c #C79759",
"F  c #C99759",
"G  c #C79859",
"H  c #C89859",
"J  c #CBA24F",
"K  c #CEA355",
"L  c #CDA15A",
"P  c #D0A556",
"I  c #D4AB55",
"U  c #D4A958",
"Y  c #D4AB59",
"T  c #D7B254",
"R  c #DAB454",
"E  c #DDBA54",
"W  c #DAB25A",
"Q  c #DDB85A",
"!  c #E1BE55",
"~  c #E2BC5B",
"^  c #CA9C60",
"/  c #D5AF72",
"(  c #DFC14F",
")  c #E1C053",
"_  c #383780",
"`  c #1D4F95",
"'  c #1D4F98",
"]  c #1E5098",
"[  c #3B6097",
"{  c #255EB4",
"}  c #3F64AD",
"|  c #2560B8",
" . c #2A61B8",
".. c #3465B8",
"X. c #464583",
"o. c #484787",
"O. c #4B4B85",
"+. c #4B4B89",
"@. c #4A5589",
"#. c #535487",
"$. c #5C5D8C",
"%. c #4F618D",
"&. c #5D6293",
"*. c #63658D",
"=. c #656A8A",
"-. c #777888",
";. c #666796",
":. c #747599",
">. c #7B7C9D",
",. c #5777BB",
"<. c #6868A7",
"1. c #6B6BAA",
"2. c #7C7BA3",
"3. c #7374A9",
"4. c #7C7BB9",
"5. c #757EC1",
"6. c #7E829E",
"7. c #7984A9",
"8. c #7081BA",
"9. c #7287C3",
"0. c #828282",
"q. c #85889B",
"w. c #929699",
"e. c #8385A4",
"r. c #8789A5",
"t. c #898BA6",
"y. c #8B8DAB",
"u. c #8E90AF",
"i. c #9798A9",
"p. c #8886BA",
"a. c #8B8ABB",
"s. c #8C92B7",
"d. c #9698B5",
"f. c #9B9EBB",
"g. c #9BABAF",
"h. c #9DA2B9",
"j. c #A2A6BC",
"k. c #A7AABA",
"l. c #A5AABD",
"z. c #ACB2B4",
"x. c #BCBBBA",
"c. c #C6BBB0",
"v. c #C5C1B9",
"b. c #8483C3",
"n. c #8C8CC3",
"m. c #8785C8",
"M. c #8B9BC5",
"N. c #9797C7",
"B. c #9AA3C9",
"V. c #A5A7C7",
"C. c #A9ACC3",
"Z. c #AAACCB",
"A. c #A9B4C5",
"S. c #B2B6C6",
"D. c #B6BACC",
"F. c #B9BDCD",
"G. c #A9A9D2",
"H. c #ADB2D2",
"J. c #B8B9D6",
"K. c #BABDD4",
"L. c #9EC0DD",
"P. c #ADC7CD",
"I. c #BAC5CD",
"U. c #BCC2D2",
"Y. c #BCC3DA",
"T. c #A7CEEE",
"R. c #AACDEE",
"E. c #AED1ED",
"W. c #B4D3ED",
"Q. c #BBD9EE",
"!. c #A7CDF5",
"~. c #AACDF4",
"^. c #AACDF9",
"/. c #B1CEF4",
"(. c #A7D4F4",
"). c #ACD2F2",
"_. c #B3D3F3",
"`. c #BAD5F2",
"'. c #B6DBF5",
"]. c #BCDAF4",
"[. c #B4E5ED",
"{. c #B5E3F3",
"}. c #B8E3F7",
"|. c #C4C5C5",
" X c #C1C5D3",
".X c #C2C5DC",
"XX c #C7CCDB",
"oX c #C7D5D7",
"OX c #CCD2DE",
"+X c #D1D5DB",
"@X c #C6C8E0",
"#X c #CED3E3",
"$X c #C5DCED",
"%X c #D2D6E4",
"&X c #D3DAE4",
"*X c #DBDFE5",
"=X c #D5DBEA",
"-X c #D7DBEC",
";X c #C3DDF3",
":X c #C7DFF5",
">X c #DDDEF1",
",X c #CCE4E5",
"<X c #CFE6E8",
"1X c #D3E5E7",
"2X c #DCE2E5",
"3X c #DCE3EC",
"4X c #C5E2F3",
"5X c #CBE4F4",
"6X c #C5EBF6",
"7X c #C5E2F9",
"8X c #CCE6F9",
"9X c #D2E6F6",
"0X c #DEE4F1",
"qX c #D4EBF6",
"wX c #DAEBF7",
"eX c #D3E7F8",
"rX c #D4EBF9",
"tX c #DCEEF9",
"yX c #C7F6FB",
"uX c #CDFBFD",
"iX c #D4F5FA",
"pX c #DCF4FB",
"aX c #D4FBFC",
"sX c #DCFBFD",
"dX c #E4E4E4",
"fX c #E2E6EC",
"gX c #E1E6F2",
"hX c #E4EBF4",
"jX c #E6EDF7",
"kX c #EAEFFA",
"lX c #E2F2F7",
"zX c #E4F5FC",
"xX c #EDF5FD",
"cX c #E4FAFE",
"vX c #EBFAFE",
"bX c #F5F6F7",
"nX c #F0F6FE",
"mX c #F2F9FF",
"MX c #FDFEFF",
/* pixels */
"| | | |  .| | 8.8.7.7.7.8.A.Y.M.9.| | | | | | | | | | | | | | | | | | | | | | | | | | | | | ..,.,.N.N.@.&.7.i.g.fXXXB.9.| | | | ",
"| | | { 9.L.E.P.yXuXvXxXvX1XQ.oX|.+XH.,.| | | | | | | | | | | | | | | | | | | | | | | | | } D.g.=.;.:.j.-XnXvXmXk.6.>.i.D.8.| | ",
"| | h.g.iX,X5XjXcXcXzXrX;X{.[.yXsXP.x.+X| | | | | | | | | | | | | | | | | | | | | | | | s.-.$.3.C.%XfXnXMXOXK.u.;.4.p.J.i.|.B.8.",
" .P.I.sXcXcXvXcX<X'.~.).).4XqXvXvXcXfXP.,.| | | | | | | | | | | | | | | | | | | | | | 9.y J.OXxXnXxXgXD.q O.#.w K.gXxXnXvXt.-.z.",
"y 2XvXvXpX5X].~.~._.;XwXcXcXcXlX6XaXuXsX[ | | | | | | | | | | | | | | | | | | | | | | @ MXnXvX0Xf.*.q O.e.F.%XmXnXgX%XZ.7.p.2.  ",
"p 1XsXaX{.).).;XpXvXcXcXwX;X_.~.}.uXaXvX%.| | | | | | | | | | | | | | | | | | | | | |   >XD.N.3.6 y.k.&XnXnXkX%Xt.$.#.<.J.-XXX  ",
"p ,XaXaX6XpXvXxXvXeX7X_.^.).W.5XcXcXvXmX[ | | | | | | | | | | | | | | | | | | | | | |   a.b.n.D.hXnXnXnXF.q.;.o.X.f.K.hXnXnX*X  ",
"p 2XcXvXvXcXtX5X~.~.~._.8XlXvXvXzXsXsXsX[ | | | | | | | | | | | | | | | | | | | | | |   %XkXxXnXgXF.h.q O.:.r.I.mXnXnXjXJ.d.:.  ",
"u fXcXcX6X_.!.~.].rXtXcXvXlXeX].}.yXuXcXw | | | | | | | | | | | | | | | | | | | | | |   MX3X%XV.4 O.$.y.%XkXxXnX&Xj.u.1.b.G.d.  ",
"p ,XaXuX[.{.4XzXvXnXxX8X_.~.~.R.yXsXcXMXw | | | | | | | | | | | | | | | | | | | | |  .  V.n.4.<.C.&XgXxXmX#XF.e.o.X.*.A.hXnX*X  ",
"p ,XsXsXcXvXvXzX5X_.~.~./.7XqXvXmXvXcXvX7 | | | | | | | | | | | | | | | | | | | | | ... s.K.#XxXxXxXgXD.q #.#.w F.gXxXnXxX@Xx.  ",
"u fXvXvXpX5X].~.^._.$XwXvXcXzXtX6XuXaXsXe | | | | | | | | | | | | | | | | | | | | | ..  MXxXvXfXf.*.X.X.e.U.&XmXmXgX%XZ.4.p.2.  ",
"u 1XcXaX[.).T.;XtXxXvXcXwX;X_.T.}.yXsXmX8 | | { | | | | | | | | | | | | | | | | | | ..  >XD.B.1.4 u.k.*XxXnXkX+Xe.$.#.;.J.-XXX  ",
"p ,XiXuXiXpXcXcXvXwX7X_.~.~.W.5XcXcXvXmX8 ` ` ` ` ` ` ` ` ` ` ` ' ' ' ' ` ` ` ` ] ] ]   p.p.n.D.jXxXnXmXD.6.*.q X.V.K.hXnXnX2X  ",
"p 2XcXvXxXzXwX:X~.~.^._.eXzXcXvXsXsXaXcX9 % o o o o o o o o o o o o o o o o o o o o o   %XkXxXxXfXD.h.6 O.:.t.I.mXxXnXhXJ.s.>.  ",
"u fXvXcX6X_.~.^.].9XlXmXcXlXwX].{.yXuXcX7 b c c c c c c c c c c c c c c c c c c c c c   MX>X#XV._ O.$.y.%XxXmXmX%Xj.y.1.m.V.f.  ",
"i ,XaXuX{.'.$XqXxXvXxXzX;X/.~.~.7XaXcXmX8 b v v v v v v v v v v v c v v v v v v v v v   Y.n.b.1.e.F.%XnXvXgX&XC.4 O.&.s.%XkX*X  ",
"i ,XaXsXaXcXmXxXwX;X].~.!.].4XpXcXcXvXmX0 l l v v v v l k x v c j l c c l j x v v v x   a.G.J.*XnXvXkX%Xt.$.O.4 d.OX3XvXnX>X X  ",
"u 3XcXvXcXqX4X_.~.^._.7XzXvXzXcXqXaXaXsX0 & * z x v z * & h z h & * z z & & j z v x j   xXxXvXmXF.r.;.O.q f.U.gXnXmXxX.XN.a.2.  ",
"u 3XcXsX[.(.~.W.9XzXvXcXzX8X;X~.}.uXaXvX8 + O * l x * O + % 5 & + O 5 5 + + & h x h &   nXXXH.1.+.;.q.I.mXxXxXhXk.=.#.<.N..XD.  ",
"i ,XuXuX6XqXtXvXmXlXrX;X~.^./.].sXcXvXMX8 2 < . * * X < 2 , . $ 2 < . . 1 2 $ O * # + . a.p.m.d.%XxXxXmX&Xk.y.X.o.e.h.#XnXnX*X  ",
"u <XcXzXvXvXzXwX`.^.^.~.7XrXlXcXcXcXzXcX8 > : < # % < s > 1 ; ; : > - < > 2 ; < # , 2 . K.=XhXvXmXOXK.q.X.o.*.j.0XxXmXnX%XZ.d.  ",
"u 3XvXvXiXQ.T.~./.:XeXzXvXvXlX8X}.yXuXsXe N n : - - : n N f 2 d N m > f N N d : = 2 d   MXxXhXY.O.#.O.#.K.gXxXxXxXU.C.3.m.n.2.  ",
"u 1XaXuX[.'.Q.qXcXxXvXlX:X_.^.~.7XaXcXMX0 G B f s > f B A N f N F Z f B Z Z N d : f f   .Xn.4.<.e.I.%XnXmX3X&Xl.3 X.&.a.%XnX*X  ",
"i ,XiXaXsXcXvXvXwX;X].~.^.].;XpXvXvXvXmXt S S Z f f Z Z G A A A H G G A S G F B s B A   a.V.U.*XnXnXjX%Xr.$.+.4 f.OX3XvXxX>X X  ",
"u 3XxXcXvXwX4XW.~.^._.:XzXcXvXcXqXaXaXcXg P S S A A D Z G A Q T A A A W E A S A S F S   nXxXxXmXF.q.;.O.q h.U.hXxXmXjX.XN.p.2.  ",
"u 3XcXsX[.).~.W.9XzXcXxXzX9X;X~.}.yXaXvXM I S P Q A G Z G A E R G W Y T E S S R Y F S   kX@XH.1.+.;.r.I.mXmXxXhXC.=.@.1.N.@XD.  ",
"i <XaXuX}.rXjXxXvXlXrX:X^.^./.].sXvXvXmXg S S I ) S G G W J R R A E W K P G A ) I F S   a.p.n.N.+XxXvXmX%Xl.y.X.o.e.j.%XnXnX*X  ",
"i <XzXcXcXvXzXqX`./.^.~.:XrXzXvXcXcXaXcXt / S I ) H F A ) I Y Y A E T F G A A ! I S /   K.-XjXvXmX+XK.6.q X.*.j.3XxXnXnX#XZ.d.  ",
"u 3XvXcXrXW.R.!.~.:XwXcXxX Xx.x.g.A.A.S.9 z.c.c.v.|.|.v.|.x.x.c.x.v.|.|.|.|.c.v.c.c.z.  MXxXhXY.O.+.O.#.K.gXxXmXxXU.C.3.m.m.e.  ",
"u <XsXaX[.'.$XwXvXvXhXw.oXbXMXMXMXMXMXMXMXMXMXMXMXMXMXMXMXMXMXMXMXMXMXMXMXMXMXMXMXMXdX  K.N.4.<.r.U.&XnXnXfX#Xj.3 X.&.a.=XkX*X  ",
"u ,XaXaXsXcXcXmXwX$XU.  fXdXdXdXdXdXdXdXdXdXdXdXdXdXdXdXdXdXdXdXdXdXdXdXdXdXdXdXdXdXoX  p.G.Y.*XvXmXkX+Xr.&.X.4 f.#XfXnXnX3X X  ",
"p 3XcXcXcXqX4X_.^.^./.<Xz.w.V 0.6.V 0.0.0.0.0.0.0.0.0.0.0.0.0.0.0.0.0.0.0.0.V V V V g . nXnXxXnXF.2.;.O.q j.I.hXnXnXjX.XN.b.2.  ",
"u 2XcXsX}.).~.W.qXzXxXxXzX5X].R.[.uXsXvX9 / S F A ~ ) P F F A F F F G F K Y Z D I ) / . kX@XH.<.o.:.t.U.mXnXxXhXl.*.+.1.N.@XK.  ",
"p ,XaXuX6XiXpXxXxXlX9X].!.!.).].iXzXvXmX8 ~ S F S ! ( K F F S G S F S F K Y Z D I ) R   a.p.n.f.%XkXnXnX%Xj.y.X.X.r.j.%XmXmX*X  ",
"u <XzXzXcXxXzXqX`.^.~.!.4XtXlXcXcXcXzXcXr S A F A ~ ) K F F F F F S S F S A G G I ! R   .X>XgXnXmXOXD.6.X.X.*.k.gXvXxXmX#XZ.u.  ",
"u 3XvXzXqXW.T.T./.:XeXvXvXvXtX8X}.yXuXsXr S H H A P K S F A S A Z W Y G F S F F L P P   MXkXwXK.q O.#.#.F.hXvXnXxX XV.3.m.n.e.  ",
"u 1XsXaX[.'.Q.tXvXvXcXtX:X/.^.~.7XsXcXMX0 G Z G F S F S U K G F D E T G F S G D F F F   J.n.b.1.t.U.&XmXmXfX#Xj.3 X.&.s.-XkX3X  ",
"p ,XaXaXpXvXxXnXwX:X].^.~.].:XpXvXvXcXmX0 G G K H H F A ~ I Z S A E T Z F A S K S S ^   p.Z.K.3XmXvXxXOXe.$.+.4 h.#X0XxXbX>X X  ",
"u 3XxXcXvXqX7X~.~.^._.:XzXvXcXcXqXaXaXsXe G J ) U A S A ! P Z S A Q W Z A Z W Q F S H   nXxXvXnXD.6.*.X.q j.U.kXxXxXhX.Xn.n.2.  ",
"u 3XcXsX}.(.T.W.9XzXvXvXzX9X;X!.}.yXaXvX9 F P ! K G G A ! I Z S S S S A D F R R S H A   kX@XH.<.X.:.y.I.mXxXxXgXl.*.+.1.N.@XD.  ",
"i ,XaXuX6XrXlXnXvXjXrX].^.^._.].sXcXmXmX8 ^ S P K S S A Y S W U F F S S A A L K H H F   p.p.n.f.&XkXnXnX%Xk.r.o.X.t.j.&XmXmX*X  ",
"u 1XzXcXcXcXzXqX`.^.^.~.4XtXpXvXvXcXcXcXe L S F G F A F F F E T S F F P Y D F S A H H    X>XjXnXmXOXD.>.O.X.;.l.0XxXmXnX#XZ.u.  ",
"u 3XcXcXwXW.R.T./.7XrXzXvXvXtX7X{.yXuXcX0 P F S S S F S F S E T Z J S W E A F S H F H   MXkXgXY.q +.#.$.K.hXxXxXzXU.C.<.m.n.t.  ",
"u 1XsXaX[.'.$XwXvXvXvXtX:X/.~.!.6XsXcXmX8 U F U ~ S F S S A R R Z Q T W E Z S ~ W G F   J.n.5.1.r.U.*XvXxX3X#Xj._ +.;.a.-XkX*X  ",
"i ,XaXaXaXvXmXcXqXQ.].~.^.].7XlXvXvXvXvXr H S U ) A F S ~ I E R A E T S S Z S E I G S   a.G.Y.*XxXmXkXOXq.$.X.4 j.@XfXkXnX-X X  ",
"u 2XvXvXvXqX7X/.^.^._.5XzXcXvXcXiXuXuXsXr A F I ! A D C ) I K K S E W S F G S ! I F S   nXnXxXmXD.>.*.X.O.k.U.xXmXxXkX.Xn.n.2.  ",
"u 3XsXsX[.(.~.`.qXzXxXnXzX9X'.T.'.yXaXcXt F F P W A A A Y Y G S G I Y S D G A T Y F F   kX.XH.<.X.:.u. XmXnXxXgXk.*.+.1.B.XXF.  ",
"i ,XaXuX[.4XwXnXvXvXlX8X!.^.^.W.rXcXvXMXt C F F S A A A H S S F H A H F F A A A A F F   p.b.b.3.F.jXnXvXkX Xj.X.O.$.:.I.mXnX*X  ",
"i ,XsXsXcXcXcXtX;XE.~.^.`.8XtXxXvXcXcXcXr Z F S A A A A F H F F H H F F G A F F Z S S   C.OX=XnXmXgX%Xk.3 O.$.>.OXjXmXnX0XU.k.  ",
"p 2XvXvXpX4X`.!.~.].4XtXvXvXzXrX6XuXuXsXr / S S Z ~ Q K F H A F S F S F K Y F S P ! W   MXnXzX&Xe.$.O.3 f.OXfXnXnX&X XN.4.p.>.  ",
"p ,XsXaX{.T.W.5XzXvXvXcX5X'._.~.}.uXcXmX8 Q S S A ! ! K F H F S H H F F S T F F I ( R   %XV.n.1.q j.I.jXnXxXhXU.=.#.#.<.@XgX%X  ",
"p ,XaXaXiXsXvXmXzX9X;X~.^._.].9XcXvXvXmXt Y F S A E ) K S F H F S A Z G H Y F F T ) E   a.N.V.XXnXnXkXhXC.*.X.q :.S.OXnXnXjX+X  ",
"u 2XvXvXcXlXqX].T.~./.].wXxXmXcXpXaXaXsXr A S S A Q Q L H H S H G K S F S G S F P E W   0XxXxXnX%Xk.t.X.o.e.j.OXnXnXxX-XZ.s.>.  ",
"u 1XcXsX6XW.T.R.:XtXlXcXvXwX8X_.}.yXaXcXr F F G F A A S S A S H A Q W Z F G F F S C S   MX*XY.s.X.X.*.k.gXnXnXnX Xu.2.1.b.H.k.  ",
"i ,XaXuX[.4XqXcXvXzXzX5X).^.).E.iXcXvXmXt F F A F F A S Q P H F A E T G G F A H F F F   a.m.b.3.D.hXxXnXkX Xj.#.q $.6.K.nXnX*X  ",
"i 1XcXcXcXcXzXtX;X_.~.~.`.9XtXcXcXcXcXcXr S S T K S S S ) I F F G E T A F F P Y S S F   C.#X=XmXnXfXOXh.3 +.$.6.+XxXmXvX0XK.k.  ",
"i 2XvXcXzX:X'.!.~.'.4XtXvXnXvXwX6XyXuXsXr ^ K ! K A F S ) I F S Z W Y G F A T E S F F   mXmXxX%Xe.$.O.q h.OX2XmXvX&X XN.b.p.>.  ",
"u 2XsXaX{.!.).;XwXxXxXvXiX;X].T.}.iXsXvXr ^ G ~ Y Z F S ~ Y S S A S S F F G W Q S F S   hXJ.G.1.X.2.h.OXnXmXxX=Xd.*.@.<.G.#X X  ",
"p ,XaXuX6XiXlXcXmXtX9X].~.!./.;XsXvXvXmX0 ^ F A Z F S S S S R R Z G Z F S G S S S F F   a.b.a.C.3XxXxXmXXXi.>.+.4 d.A.3XxXnX2X  ",
"u 1XlXcXcXvXzX9X/.^.~./.8XpXvXcXcXcXpXcXr P F F F Z F F F S R T A S A Y W A S F S F F   OXgXxXmXxX XC.$.O.#.:.S.kXnXkXbX.Xf.e.  ",
"u dXmXcX9X_.~.T.`.8XwXmXxXlXiX4X{.yXuXcXr P A F S F F A F S E T S S G R E A S S S F S   MXhX=XZ.3 O.$.>.XXkXmXmX>XS.f.<.m.N.d.  ",
"i ,XaXuX{.}.$XtXvXvXcXrX].).^.R.6XsXcXMXr P F L K S F S S F E T F K S R E F Z K S F F   H.n.b.<.d.XX-XnXmX*X Xu.X.X.*.V.>XkX3X  ",
"w.1XsXcXcXmXmXvXjX1X$X].`.;X9XkXmXnXvXmXw.P F U ) A F D C C R R A Q W W R Z A ~ Y F / a Z.K.OXhXmXbXnX2Xi.i.y.e.S.>XkXnXnXhX=Xg "
};
