/* XPM */
static char *bea3c69db9a54b9aaeb7b55722492f56[] = {
/* columns rows colors chars-per-pixel */
"64 64 255 2 ",
"   c #010102",
".  c #0B0202",
"X  c #040B02",
"o  c #0C0A03",
"O  c #03020B",
"+  c #0A030B",
"@  c #030A0A",
"#  c #0C0A0C",
"$  c #130201",
"%  c #1A0201",
"&  c #120B03",
"*  c #170708",
"=  c #130C0B",
"-  c #081405",
";  c #181506",
":  c #020213",
">  c #0A0312",
",  c #070B17",
"<  c #0B0A13",
"1  c #04021B",
"2  c #0B031A",
"3  c #140817",
"4  c #0A1115",
"5  c #151B12",
"6  c #161915",
"7  c #270805",
"8  c #380502",
"9  c #231404",
"0  c #271807",
"q  c #38160D",
"w  c #25091A",
"e  c #281A15",
"r  c #122E0A",
"t  c #392802",
"y  c #2A2B1C",
"u  c #303312",
"i  c #0A0524",
"p  c #160827",
"a  c #15122F",
"s  c #2B1327",
"d  c #0D3C27",
"f  c #2C2A27",
"g  c #312A23",
"h  c #382B27",
"j  c #293223",
"k  c #56160B",
"l  c #6D0E07",
"z  c #781D08",
"x  c #482701",
"c  c #50320F",
"v  c #722B0B",
"b  c #511B2A",
"n  c #6D0E2F",
"m  c #50292F",
"M  c #732A2B",
"N  c #2B4C0E",
"B  c #155D21",
"V  c #2C522B",
"C  c #337737",
"Z  c #4F4A0D",
"A  c #584603",
"S  c #6D4B07",
"D  c #706806",
"F  c #524C2C",
"G  c #4D5A3C",
"H  c #54583C",
"J  c #704E30",
"K  c #65573A",
"L  c #645C3C",
"P  c #5A643C",
"I  c #4B7331",
"U  c #676638",
"Y  c #6C6A3C",
"T  c #726E30",
"R  c #736839",
"E  c #6C2846",
"W  c #613261",
"Q  c #255B49",
"!  c #584A40",
"~  c #4B5B45",
"^  c #5D5343",
"/  c #545C45",
"(  c #6A4945",
")  c #625846",
"_  c #586242",
"`  c #526A4B",
"'  c #706D4A",
"]  c #6F576F",
"[  c #91140C",
"{  c #95300F",
"}  c #AC3119",
"|  c #A81926",
" . c #8D3530",
".. c #AF3129",
"X. c #D11B1B",
"o. c #CC2E32",
"O. c #ED2A35",
"+. c #AB5A0B",
"@. c #AD5215",
"#. c #866E0F",
"$. c #8D4C25",
"%. c #AF4C33",
"&. c #AC7529",
"*. c #D24C11",
"=. c #D05A29",
"-. c #DE6222",
";. c #F36B30",
":. c #B3334C",
">. c #DC2446",
",. c #F6324D",
"<. c #8B5E5F",
"1. c #8D7649",
"2. c #B06F4D",
"3. c #8D6F67",
"4. c #F84E56",
"5. c #CE7556",
"6. c #F2754F",
"7. c #FD4A68",
"8. c #F36E6E",
"9. c #308B30",
"0. c #57930C",
"q. c #6E8B08",
"w. c #598A34",
"e. c #6C8C36",
"r. c #6BA829",
"t. c #43C139",
"y. c #348B4F",
"u. c #3A9C63",
"i. c #4E8F55",
"p. c #75904F",
"a. c #5EA062",
"s. c #70BA70",
"d. c #4CD363",
"f. c #6CC975",
"g. c #998D0F",
"h. c #9C9334",
"j. c #A69132",
"k. c #B8A42E",
"l. c #F28A36",
"z. c #D9A22D",
"x. c #CBB037",
"c. c #CBB83C",
"v. c #BDD51C",
"b. c #F7CB05",
"n. c #FDCD01",
"m. c #EBD108",
"M. c #F5D705",
"N. c #FED401",
"B. c #FEDB01",
"V. c #FDD40C",
"C. c #FEDB0B",
"Z. c #F9CC14",
"A. c #FCD414",
"S. c #FCDC14",
"D. c #F9D719",
"F. c #D9F51F",
"G. c #FEE202",
"H. c #FDE608",
"J. c #EAEB17",
"K. c #FDE517",
"L. c #D2CA2E",
"P. c #F9D927",
"I. c #EECF31",
"U. c #F8D835",
"Y. c #D4F731",
"T. c #FDE427",
"R. c #F9F32B",
"E. c #FCE737",
"W. c #FCF839",
"Q. c #948F4D",
"!. c #8B9C4E",
"~. c #8B9857",
"^. c #94965A",
"/. c #939A5C",
"(. c #AD9455",
"). c #8CA258",
"_. c #92A15B",
"`. c #BDA94C",
"'. c #B8A458",
"]. c #969568",
"[. c #AF8E70",
"{. c #94AE6F",
"}. c #B7BD77",
"|. c #DB9053",
" X c #FC8554",
".X c #F68E51",
"XX c #D7BB47",
"oX c #CAAF51",
"OX c #D7BA56",
"+X c #F9AF59",
"@X c #D5906F",
"#X c #EB9066",
"$X c #CFB36F",
"%X c #FDA669",
"&X c #FCB769",
"*X c #F2AD73",
"=X c #9BD962",
"-X c #ACC370",
";X c #D9C647",
":X c #D4C754",
">X c #F8DA47",
",X c #EACB53",
"<X c #FEDC57",
"1X c #CFFB4F",
"2X c #FDE648",
"3X c #FFF44A",
"4X c #FDE855",
"5X c #FFF558",
"6X c #D9C569",
"7X c #F2D46F",
"8X c #C7F676",
"9X c #FDEA64",
"0X c #FFF56A",
"qX c #FCE876",
"wX c #F6F474",
"eX c #593B87",
"rX c #7255A7",
"tX c #A3609D",
"yX c #A04CAE",
"uX c #B055B8",
"iX c #AF6DB9",
"pX c #9C56C7",
"aX c #DC7BD0",
"sX c #78B983",
"dX c #65CF8E",
"fX c #A49C9C",
"gX c #EFB98A",
"hX c #DAB4B1",
"jX c #E0A9A5",
"kX c #87C688",
"lX c #B7D29A",
"zX c #F4CF91",
"xX c #D7ED9E",
"cX c #D0F194",
"vX c #F9EC8F",
"bX c #FFF488",
"nX c #C8D2A2",
"mX c #FBDBAF",
"MX c #CEEDAA",
"NX c #DAEEA6",
"BX c #E9FBBB",
"VX c #F4F3B3",
"CX c #EA8FD4",
"ZX c #E9A0DF",
"AX c #F6B0ED",
"SX c #FBD7CC",
"DX c #D8EFC3",
"FX c #D8FBC5",
"GX c #E4F4C2",
"HX c #E9FDC2",
"JX c #F8FBC7",
"KX c #F6F8CF",
"LX c #D8C6F5",
"PX c #EFD2FF",
"IX c #FBECE1",
/* pixels */
"                                          : 1 1 : O   X X @ @ , , , @ @   O O O   . . . .                                       ",
"                                        X + 2 : O O @ - X -   5     5     # O # O O . . .                                       ",
"                                      X O + + O O , , @ - - t lX$XK &   . *   > < @                                             ",
"                                              O O , , 4 X & x zXvX'.1.c & = O > 2 : O @ X X o O                                 ",
"                                        . X .   : 1 i < & t A ,X9XvXzXS . $ # 3 , ,     X @ o   X O                             ",
"                                      .         : i p 7 O :X4XT.K.2X7Xv 8 $ # 2 , , O O O O O O O       O                       ",
"                                        X       2 2 + $   ,X5XD.K.T.>XOX$Xc 6 s i , @ O     O O       O   O   O                 ",
"                                        X   X O 3 + % 1.j.>XE.M.H.S.U.<XOXc $ > i i :       X O O                               ",
"                                      . X   3 O 3 $ t OX9X2XK.m.H.M.A.P.L.#.c + 2 i : O   X         O   O   O                   ",
"                                        X O O + % $ q XX2XK.H.G.G.B.C.K.P.4X6Xx $ p O < . X O O O O                             ",
"                                        O + < + % (.6X2XT.G.G.G.K.S.C.C.K.3X;Xx . * 3 3   . O O O   O       O                   ",
"                                      . X O   $ $ oX<XA.C.B.G.B.S.A.S.C.G.H.U.k.J   3 > o     O   O       O                     ",
"                                      . X     u c `.>XS.B.N.N.M.A.Z.P.b.G.G.R.0X'.  e O >   X O O                               ",
"                                  O O - &     Q.vX>XP.b.n.n.N.G.G.M.b.M.N.M.K.3Xk.  9 - # @ # # O O     X                       ",
"                                O O O = - o X h.9XP.S.N.n.Z.V.C.G.B.V.N.B.G.K.T.5XqXQ.9 y 4 = 4 , O O                           ",
"                        X       O O + ; ; Z h.,X3XS.B.N.N.Z.D.P.D.D.C.C.B.B.B.K.U.0X(.% 7 . 4 4 1 : O             O             ",
"                              @ : : * & 9 Q.9XE.V.M.B.B.N.N.V.Z.P.A.C.M.B.B.B.b.D.>Xk.S x % ; = 2 : : O                         ",
"                        X     : O O * + x g.I.T.A.n.b.b.N.N.N.V.Z.A.C.G.B.B.B.N.P.P.>XqX&.7 $ ; 3 > : O                         ",
"                            O O >   $ Z 6X,XU.U.U.P.P.D.S.K.S.T.P.P.I.P.P.D.Z.Z.D.P.P.>X>XoXF & . > 3 :                         ",
"                            O   6     #.qX2X3X>Xc.OXOXOX;X;XL.;X;X;X:X:X:XOXXXXXI.XXI.E.3XwXT   % * > >       X                 ",
"                    . O O @ @ O # . Z k.2XW.2Xc.c %                           % 8 x c.3XT.2Xh.Z 9 . + + O O                     ",
"                    . + @ : : O o t vX0XP.D.E.L.A & * 3 3 > $ * o o X . > 2 3 7 8 x c.2XD.E.5XvXR $ + > .                       ",
"                    . + 1 i i 3 % 0 0X2XR.P.P.3X,Xh.; . O : < o o o X # O O     (.7X>XZ.P.T.Z.,XS w 3 >   . X   : @ O O O       ",
"                  .   > 2 i 3 m 1.j.4XT.S.D.T.P.2Xc.. & X 2 2 # $ & 5 # + 3 &   OX<XP.P.n.S.A.<XoX1.h . + # @ @ O O   O   O     ",
"          X   X O O , i i 3 = F 6X4XP.b.n.b.b.S.E.L.Z Z ; 4 p 2 3 < # # + $ c A ,X>XZ.b.b.Z.D.E.4X9XA . i i i 1   O O   O O     ",
"              @ o O : i 2 =   A ,X3Xb.H.n.N.b.B.M.3X9X`.t & 3 p 2 a < + = . (.vX0XD.S.m.N.Z.A.K.T.U.A   p a p 1     O O         ",
"          . .     O i , + % '.,XU.V.B.N.N.n.N.N.C.J.E.`.& . 3 2 a > 4 * . . Q.0XP.S.N.N.n.Z.A.B.G.H.>X(.% p p 1 X   O     O O   ",
"                  O , # ; t 6X2XD.B.B.B.N.N.n.n.C.H.R.L.`.J 3 6 a p 6 ; K '.;XE.S.B.N.n.n.Z.A.B.G.H.E.7X$ 3 3 X - X   O     O   ",
"                    o . c D ,XW.H.G.B.N.A.A.Z.n.N.B.K.2XwX(.  = : > X & Q.bX4XA.B.B.N.n.Z.V.C.B.G.B.P.>XS Z *   #     O O   O   ",
"                  o $ 0 $XvX3XM.G.B.B.N.D.P.Z.n.N.B.K.T.5X(.  o 5 6 X   Q.7XE.S.B.N.N.n.Z.V.V.C.C.C.P.2XbX6X0 o     O     O O   ",
"        # #   O O $ % 7 oX4XD.K.G.B.C.S.D.A.n.n.b.n.N.T.P.0XvXK $   T wX0XR.K.M.A.A.V.N.n.N.A.A.A.C.M.D.2X;Xt $ 3 > O O O     O ",
"        o = o   . * J j.,XT.K.B.B.M.N.K.S.C.B.N.N.n.N.C.J.3X0XT 9 . #.9XW.G.H.H.D.P.Z.n.N.C.S.S.C.B.B.M.E.>X`.1.  + O O O O >   ",
"O       X   = & o 0 oXwXU.S.H.N.N.N.B.G.G.H.B.B.N.N.B.B.H.S.U.g.D S g.P.K.H.H.H.K.A.V.n.N.B.B.B.N.N.B.B.S.P.qX'.  . , < 4 < < X ",
"O O O   O . ;     t k.>XE.K.K.N.B.B.B.G.G.G.B.M.V.V.B.M.K.C.R.E.2X2X>XP.C.G.G.G.C.V.V.N.N.N.B.B.B.B.B.B.m.E.9Xx.7 % 3 < < > + O ",
"O O O O # . o   ' mX9X4XE.E.T.T.D.T.C.M.G.m.G.m.D.m.m.I.T.T.E.U.2X<X<XU.P.D.K.S.S.Z.D.m.B.M.J.K.D.T.E.E.E.2X0XqXzX].a X < < #   ",
"O O O O O # ; & ) lX6XOX;Xc.c.XXc.c.x.F.R.J.R.R.L.;Xc.:XXXc.OX7XvXzX7XOX,XXXL.x.L.L.Y.R.R.W.v.v.c.c.XX;XXXOX:X$X$X' a O # O O O ",
"  O O : : < o & &               .   t q.Y.Y.F.L.q.N   ; V ' 3.jXhXhXhX] ( ) m - t q.Y.Y.F.1XD r X                 = > # > O O   ",
"    O : > > # = o   O   O O O > O & t e.8XwXY.1XcX-X~ fXLXPXPXPXAXZXLXLXLXPXfX- =XcX1X1X1X8Xp.N 5 O 2 > O O     o @ : : < < <   ",
"    O O O O # # o 6 : : 1 1 i i i 3 r N w.0.r.0.p.kXfXrXeXrXpXyXrXpXpXrXpXeXrXhXfXw.r.0.0.w.V d - 1 i i > > O   O # # . O X     ",
"    O   @ O @ O O O . O O : 1 : , # d B y.C i.~ V rXfXiXiXiXyXuXuXpXuXpXtXtXuXfXyXQ C 9.C w.V r r   O O + +     X               ",
"O O O O @ O O @ @ O o . X @ @ O   X r B s.f.kXs.j m ] iXCXZXCXCXaXaXaXAXAXAXjX:.W B u.dXf.s.B r 5   > > > > O           O       ",
"O O O O : O : : : O . . X   . . $ o r N s.{.kXa.h fXSXtXE n n n | n n :.n b tXZXrXd u.dXf.f.V r -   O : : : : : @ O   O   O O   ",
"    O O       O @     X   X   X o . - r C y.sX` j F <.hXIX[.k 2.#X@XtXk fXIXjX<.! d u.dXy.B r - X X # O : : : : : O   X   @     ",
"5 5 5 5 5 5 5 5 5 5 5 a 5 5 6 e e e e r V C dXu.u K [.SXJXzX% @X%X%X|.c {.IXmXfXK j a.dXy.r u r - 5 5 5 @ < 4 , , 5 5 5 5 5 5 5 ",
"_ / _ ) / _ _ _ / / ~ ~ ~ ` ` ^ m H ~ G d B d.t.N Q.gXmXVXzX#.oX.X.X#Xh.-XKXmXgX2.Z p.{.9.r H H I G _ _ _ ` / / / / G ~ P ~ G _ ",
"GXGXBXHXGXGXGXGXBXGXDXDXDXFXGXKXKXIXMXlXN 9.d.f.}.gXgXgXmXVXvX*Xl..X&XvXVXJXzX*XoX`.-Xs.y.I lXGXGXGXMXBXFXFXGXDXGXGXHXHXGXGXHXGX",
"BXBXBXBXJXJXBXJXHXBXHXFXFXFXBXBXVXJXVXNXr 9.t.r.D &.#X#X*XzX&X.X X X.X&XzXzXgX%X&.D r.s.9.I nXKXHXBXHXHXBXMXBXBXBXBXBXHXHXBXHXHX",
"NXNXNXNXNXNXNXNXNXMXMXMXMXMXMXxXxXVXNX-Xe.C t.a.U h.2.#X%X%X%X X;.;.;..X&X&X6X_.e.w.e.w.I e.kXnXMXlXMXMXcXMXcXcXcXxXxXxXxXxXxXxX",
"^.!.~.!.).~._.~._.).).).).).)._./.!.Q.Q./.~.N I {.w.Z '.&X&X.X;.*.*.*. X+XzX$XZ w.{.I N p.].].~.p.p.).p.~.).!.!.!.!.!.!.!.!.!.!.",
"/./././.^.~./././.~./.^.~.~././.^.^.^.~.~.1.c Y {.w.r A { -.6.6.6. X6.8.6.{ l x Q.{.C N ` p.].[.].].].].^.^.^.Q.(._./././././.).",
"Y Y Y Y Y ' Y Y Y Y R ' R Y ' ' ' p.Y U U ' L P Z ' $.} | X.X.} } } ..o.o.} } %.v F F I ` ' ' ' ' _ ' ' U U R U T U U U T U T U ",
"L K L ) K K ) ) K L L L U K U H U P G P ' _ / ( M ..o.o.O.>.X.X.....| X.O.,.O.o.[ v K G ' _ ) ^ _ P G P _ P L U L L L L H L L L ",
"^ ^ ^ ^ ^ ^ ) ^ ) ) ) K H K ^ H H H G H / ^ E  . .| >.4.7.,.>.>.,.>.>.,.,.,.O.o.[ z E ( ) ^ / ~ / H G ~ G ~ H / H H ) H K ) H ) ",
"g f h h f f g g g g y g g y y y y j j j j h k k l | o.4.8.7.7.7.7.7.7.7.4.4.,.O...k k m h y y y y j y j d j j f h g g g g y g g ",
"+ = # = 3 # + = + + X X - X o - X X o - & ; x 2.gX5.| X.O.O.O.4.8.8.,.O.O.O.O.[ 8.SX[.e ; e 6 = o o o @ X o . . $ . o # # o . $ ",
"    O                     .         o 3 g b  .2.gX8.6.6.6.O.X..X#X%X.X*.*..X.X6.%XgX<.J b s 7 7 o     O . . + . .               ",
"  . .     O   . .   O O . $ . .   . . w E E :.:.%.#X%X%X+Xl.+.&X+X<X7X-.z.+X+X+X6.} }  .M b s 7     < O + . O                 X ",
"  O + O . .     O     . + + > O O = 7 8 M [ z [ l { @.+.+.+X7X7X&X+X+X+X+X-.{ @.{ l l z z v 7 7 * @ O O + + O     X   O O X     ",
". O +   O O . O O .     : : 1 : O . 8 $.#X#X=.{ [ v { v l @.-.-.;.;.*.-.@.v v v z { } =.|.@X( 7 o   O + O + O O @ @ O O O O   O ",
"O O +   O + O O +     . O : 1 1   . x %.;.-.;.=.@.v c c q M  .} [ [ { { M b k M  .} =.;.;.#X$.q 9 .     O > : O : @ O O O   O   ",
"  O . O X + + + O . X   O : 1 :   & x $.|.8.6.4.%.M m w w s m b l b n b s w s b  .%.;.l.;.|.J t 0 X X o O + O     O O O X O #   ",
".   .                     + O O @ o 9 x v v [ [ n b m a i 2 3 $ * w p p > # e b b l z z z M c 9 -     O + $ . O               . ",
".       . . .   . X X . . $ $ .   X & ; * 8 8 8 q e > > , @ > * * 3 3 >   O = * 7 7 7 e 0 9 9 ; o X X   . . . o   .   . .       ",
"- ; 0 9 ; 9 ; 9 9 ; 5 ; 7 0 8 7 0 ; ; 5 e e q 7 e e ; e 0 e e e e 7 0 0 0 0 0 0 s s a a a 6 0 0 0 5 ; 9 9 q 7 7 9 0 9 9 9 9 9 ; "
};
