/* XPM */
static char *_576145440977[] = {
/* columns rows colors chars-per-pixel */
"64 64 171 2 ",
"   c #020D04",
".  c #031103",
"X  c #0D0D12",
"o  c #221F0B",
"O  c #012600",
"+  c #1F200E",
"@  c #083707",
"#  c #053904",
"$  c #092E1E",
"%  c #1E2914",
"&  c #122A1F",
"*  c #1E331B",
"=  c #22210D",
"-  c #202915",
";  c #20351D",
":  c #3A3619",
">  c #0C3B20",
",  c #173725",
"<  c #223721",
"1  c #3E3620",
"2  c #323C21",
"3  c #443D1B",
"4  c #463A1D",
"5  c #443F22",
"6  c #094709",
"7  c #0B4324",
"8  c #1A5633",
"9  c #1A5A35",
"0  c #145B3B",
"q  c #195B39",
"w  c #384124",
"e  c #0D6835",
"r  c #146335",
"t  c #146B35",
"y  c #0D703E",
"u  c #0D7C3A",
"i  c #127233",
"p  c #43401D",
"a  c #4A431F",
"s  c #50441D",
"d  c #5B531E",
"f  c #62591D",
"g  c #6E621D",
"h  c #756717",
"j  c #7A6717",
"k  c #776817",
"l  c #7A6816",
"z  c #73641D",
"x  c #7A661A",
"c  c #76691A",
"v  c #796819",
"b  c #494120",
"n  c #5C5227",
"m  c #595429",
"M  c #594B32",
"N  c #605624",
"B  c #665C24",
"V  c #6A5E23",
"C  c #6C5D29",
"Z  c #665739",
"A  c #67573D",
"S  c #69563D",
"D  c #775F3F",
"F  c #795E3F",
"G  c #6E6123",
"H  c #6D6129",
"J  c #756524",
"K  c #786924",
"L  c #73652A",
"P  c #0D6E44",
"I  c #136C42",
"U  c #0A7043",
"Y  c #18497A",
"T  c #2F5572",
"R  c #775F42",
"E  c #785F41",
"W  c #796041",
"Q  c #83661E",
"!  c #816D24",
"~  c #857128",
"^  c #8B752C",
"/  c #95762E",
"(  c #8E7530",
")  c #947633",
"_  c #987736",
"`  c #967934",
"'  c #987836",
"]  c #9C7D38",
"[  c #A07D3A",
"{  c #06BE0F",
"}  c #0BA51B",
"|  c #0DAD1F",
" . c #08B717",
".. c #05B41A",
"X. c #05B918",
"o. c #08BA1C",
"O. c #17B81B",
"+. c #148A2F",
"@. c #0E9F24",
"#. c #0E932B",
"$. c #059D2C",
"%. c #13922B",
"&. c #119928",
"*. c #0B8634",
"=. c #178638",
"-. c #069C31",
";. c #06A425",
":. c #0CAD24",
">. c #05A328",
",. c #10AB24",
"<. c #12A92C",
"1. c #03C604",
"2. c #01C903",
"3. c #06C30A",
"4. c #03C809",
"5. c #10C30C",
"6. c #0EC212",
"7. c #11C111",
"8. c #9F823C",
"9. c #A2823E",
"0. c #A58643",
"q. c #AA8644",
"w. c #A78842",
"e. c #AA8844",
"r. c #B58D4C",
"t. c #BA8F4E",
"y. c #BA924D",
"u. c #BE9452",
"i. c #C59A4F",
"p. c #CA9D4F",
"a. c #C69756",
"s. c #C89757",
"d. c #C69955",
"f. c #C99A55",
"g. c #C7975A",
"h. c #C9975A",
"j. c #C79859",
"k. c #C89859",
"l. c #CBA24F",
"z. c #CEA355",
"x. c #CEA258",
"c. c #D1A655",
"v. c #D4AB55",
"b. c #D8AF56",
"n. c #D1A559",
"m. c #D4AB59",
"M. c #D9AF5A",
"N. c #D7B254",
"B. c #DAB455",
"V. c #DDBA54",
"C. c #D7B158",
"Z. c #DBB359",
"A. c #DEB959",
"S. c #E1BF4F",
"D. c #E1BE55",
"F. c #E2BC5A",
"G. c #E3BC61",
"H. c #DFC14E",
"J. c #DFC051",
"K. c #E0C04F",
"L. c #E1C053",
"P. c #004486",
"I. c #064E95",
"U. c #0C4F95",
"Y. c #054F98",
"T. c #104F95",
"R. c #04519A",
"E. c #1F5CA5",
"W. c #0A5FB4",
"Q. c #0060B8",
"!. c #1765B7",
/* pixels */
"Q.Q.Q.Q.Q.Q.Q.Q.Q.Q.Q.Q.Q.Q.Q.Q.Q.Q.Q.Q.Q.Q.Q.Q.Q.Q.Q.Q.Q.Q.Q.Q.Q.Q.Q.Q.Q.Q.Q.Q.Q.Q.Q.Q.Q.Q.Q.Q.Q.Q.Q.Q.Q.Q.Q.Q.Q.Q.Q.Q.Q.Q.Q.Q.",
"Q.Q.Q.Q.Q.Q.Q.Q.Q.Q.Q.Q.Q.Q.Q.Q.Q.Q.Q.Q.Q.Q.Q.Q.Q.Q.Q.Q.Q.Q.Q.Q.Q.Q.Q.Q.Q.Q.Q.Q.Q.Q.Q.Q.Q.Q.Q.Q.Q.Q.Q.Q.Q.Q.Q.Q.Q.Q.Q.Q.Q.Q.Q.Q.",
"Q.Q.Q.Q.Q.Q.Q.Q.Q.Q.Q.Q.Q.Q.Q.Q.Q.Q.Q.Q.Q.Q.Q.Q.Q.Q.Q.Q.Q.Q.Q.Q.Q.Q.Q.Q.Q.Q.Q.Q.Q.Q.Q.Q.Q.Q.Q.Q.Q.Q.Q.Q.Q.Q.Q.Q.Q.Q.Q.Q.Q.Q.Q.Q.",
"Q.Q.Q.Q.Q.Q.Q.Q.Q.Q.Q.Q.Q.Q.Q.Q.Q.Q.Q.Q.Q.Q.Q.Q.Q.Q.Q.Q.Q.Q.Q.Q.Q.Q.Q.Q.Q.Q.Q.Q.Q.Q.Q.Q.Q.Q.Q.Q.Q.Q.Q.Q.Q.Q.Q.Q.Q.Q.Q.Q.Q.Q.Q.Q.",
"Q.Q.Q.Q.Q.Q.Q.Q.Q.Q.Q.Q.Q.Q.Q.Q.Q.Q.Q.Q.Q.Q.Q.Q.Q.Q.Q.Q.Q.Q.Q.Q.Q.Q.Q.Q.Q.Q.Q.Q.Q.Q.Q.Q.Q.Q.Q.Q.Q.Q.Q.Q.Q.Q.Q.Q.Q.Q.Q.Q.Q.Q.Q.Q.",
"Q.Q.Q.Q.Q.Q.Q.Q.Q.Q.Q.Q.Q.Q.Q.Q.Q.Q.Q.Q.Q.Q.Q.Q.Q.Q.Q.Q.Q.Q.Q.Q.Q.Q.Q.Q.Q.Q.Q.Q.Q.Q.Q.Q.Q.Q.Q.Q.Q.Q.Q.Q.Q.Q.Q.Q.Q.Q.Q.Q.Q.Q.Q.Q.",
"Q.Q.Q.Q.Q.Q.Q.Q.Q.Q.Q.Q.Q.Q.Q.Q.Q.Q.Q.Q.Q.Q.Q.Q.Q.Q.Q.Q.Q.Q.Q.Q.Q.Q.Q.Q.Q.Q.Q.Q.Q.Q.Q.Q.Q.Q.Q.Q.Q.Q.Q.Q.Q.Q.Q.Q.Q.Q.Q.Q.Q.Q.Q.Q.",
"Q.Q.Q.Q.Q.Q.Q.Q.Q.Q.Q.Q.Q.Q.Q.Q.Q.Q.Q.Q.Q.Q.Q.Q.Q.Q.Q.Q.Q.Q.Q.Q.Q.Q.Q.Q.Q.Q.Q.Q.Q.Q.Q.Q.Q.Q.Q.Q.Q.Q.Q.Q.Q.Q.Q.Q.Q.Q.Q.Q.Q.Q.Q.Q.",
"Q.Q.Q.Q.Q.Q.Q.Q.Q.Q.Q.Q.Q.Q.Q.Q.Q.Q.Q.Q.Q.Q.Q.Q.Q.Q.Q.Q.Q.Q.Q.Q.Q.Q.Q.Q.Q.Q.Q.Q.Q.Q.Q.Q.Q.Q.Q.Q.Q.Q.Q.Q.Q.Q.Q.Q.Q.Q.Q.Q.Q.Q.Q.Q.",
"Q.Q.Q.Q.Q.Q.Q.Q.Q.Q.Q.Q.Q.Q.Q.Q.Q.Q.Q.Q.Q.Q.Q.Q.Q.Q.Q.Q.Q.Q.Q.Q.Q.Q.Q.Q.Q.Q.Q.Q.Q.Q.Q.Q.Q.Q.Q.Q.Q.Q.Q.Q.Q.Q.Q.Q.Q.Q.Q.Q.Q.Q.Q.Q.",
"Q.Q.Q.Q.Q.Q.Q.Q.Q.Q.Q.Q.Q.Q.Q.Q.Q.Q.Q.Q.Q.Q.Q.Q.Q.Q.Q.Q.Q.Q.Q.Q.Q.Q.Q.Q.Q.Q.Q.W.Q.Q.Q.Q.Q.Q.Q.Q.Q.Q.Q.Q.Q.Q.Q.Q.Q.Q.Q.Q.Q.Q.Q.Q.",
"Q.Q.Q.Q.Q.Q.Q.Q.Q.Q.Q.Q.Q.Q.Q.Q.Q.Q.Q.Q.Q.Q.Q.Q.Q.Q.Q.Q.Q.Q.Q.Q.Q.Q.Q.Q.Q.Q.Q.W.Q.Q.Q.Q.Q.Q.Q.Q.Q.Q.Q.Q.Q.Q.Q.Q.Q.Q.Q.Q.Q.Q.Q.Q.",
"Q.Q.Q.Q.Q.Q.Q.Q.Q.Q.Q.Q.Q.Q.Q.Q.Q.Q.Q.Q.Q.Q.Q.Q.Q.Q.Q.Q.W.Q.Q.Q.Q.Q.Q.Q.Q.Q.W.W.Q.Q.Q.Q.Q.Q.Q.Q.Q.Q.Q.Q.Q.Q.Q.Q.Q.Q.Q.Q.Q.Q.Q.Q.",
"Q.Q.Q.I.I.I.U.I.I.I.I.U.I.R.R.R.R.I.R.R.R.T.I.I.I.I.I.I.I.I.I.U.T.T.T.T.T.U.Y.Y.Y.R.I.R.R.I.T.T.T.T.T.U.U.U.U.U.U.U.U.R.U.W.Q.Q.",
"Q.Q.!.# # # # # # # # # # # # # # # # # # # # # # @ @ # # @ # # # # # # 6 # # # @ @ # # # # # # # # @ @ @ # # @ # # @ @ # E.Q.Q.",
"Q.P.O 7.5.7.6.7.7.7.5.O.7.7.7.7.7.7.7.7.7.7.7.7.7.7.7.7.7.7.7.5.7.7.7.7.6.6.6.5.7.6.6.7.7.7.7.7.7.7.6.6.6.6.6.7.7.7.6.6.6.6 Y Q.",
"E.=.O.1.1.1.1.1.2.2.2.1.2.2.2.2.2.2.2.2.2.2.2.2.2.2.2.2.2.2.2.2.1.1.1.1.2.2.1.2.2.2.2.2.1.2.2.2.1.2.1.2.1.2.2.2.2.2.2.1.1.O.=.R.",
"T u >.3.1.;.$.X.2.1.1.{ >.$.3.1.;.$...2.X.$.>.4.1.1.1.>.-.X.2.X.$.;.4.1.;.$. .1.1.1.{ $.>.1.1.;.-.X.1.o.$.>.1.1.2.2.;.$.X.1.} Y ",
"& q r <.| t 0 %. .1. .@.0 r <.:.i 0 %.:.%.q i :.3.3.| i 0 +.:.&.0 t <.,.r 0 &. .1...&.0 r :.,.r 0 #...#.q i :.3.3.:.i 0 #.| &., ",
"X = - I P * o q =.o.=.r o + I I * = 9 P 8 o ; y <.:.y , + 8 P q o * I I % o q =.o.*.q = % I I * + 8 I 8 = , I :.,.y < = 8 U 8 X ",
"1 J L     C K 3 $ u 7 : K L . . C J b   5 L C . e e . N K a . 3 J C     H K 4 > *.> : L J     V L p   s K B   e e   C J a . b b ",
"4 j x B V x x g n $ n f x j V B j c J V G x x V w w G c x L V g x x V V j x f N $ m g v c V C x l G V z x h C 2 w V c x g f J p ",
"M 0.0.h ` q.e.^ J d g ~ e.0.v l ] e.( ! q.0.9.x f d v 8.e.) k ^ 0.9.j ] q.e.~ z n z ~ e.0.c c 8.e.^ ! w.0.8.c n d v 8.q.^ j ^ Z ",
"S h.d.` r.s.s.q.( c ^ 9.f.a.' ` u.f.e.] h.j.u.' ! K ' y.a.e.) 0.k.a._ r.h.h.0.^ h ^ 0.k.a.` ' d.a.0.[ j.j.u.` ! ! ' a.s.q._ q.F ",
"R u.g.g.d.i.s.a.y.x t.j.j.k.j.i.j.s.j.a.d.f.k.a.' ) d.j.j.a.d.d.j.j.j.l.a.j.j.y.Q y.k.j.j.f.f.f.f.a.f.f.k.j.f./ ` a.j.a.j.d.f.W ",
"Z a.a.a.Z.Z.d.k.f.d.k.k.a.j.n.F.x.s.d.f.F.c.f.f.f.d.j.j.j.d.Z.B.a.j.a.C.V.j.f.a.a.k.f.j.a.m.L.f.a.d.z.V.x.a.f.f.j.f.f.j.f.A.C.W ",
"S a.C.m.N.F.f.k.B.v.j.a.k.k.c.L.z.z.V.z.D.n.f.c.A.f.j.j.j.d.V.B.a.Z.m.B.V.f.f.B.c.k.f.s.j.c.L.z.z.V.z.H.c.k.n.Z.a.j.k.a.a.V.N.W ",
"S a.V.B.x.v.s.f.V.C.k.k.z.b.x.L.z.z.J.z.v.z.a.v.J.f.k.a.C.z.B.B.a.V.C.c.c.j.a.L.v.h.s.z.m.c.L.f.m.L.z.v.x.k.v.D.f.a.k.C.z.V.N.D ",
"S f.V.N.a.d.j.j.D.C.h.h.b.V.x.Z.f.c.L.x.k.k.k.v.L.a.k.d.J.v.C.b.s.V.N.j.j.j.d.L.b.h.f.Z.S.c.Z.f.m.V.f.f.j.k.b.D.d.f.f.L.c.Z.v.W ",
"S s.A.Z.f.k.k.k.F.b.k.k.m.A.f.i.f.n.F.f.j.k.k.m.G.f.j.f.G.m.a.f.s.F.C.a.k.f.a.G.m.k.s.m.A.d.d.f.n.F.z.f.f.k.m.F.f.f.f.F.m.d.a.R ",
"S k.a.d.j.a.k.k.d.s.a.a.f.d.f.h.k.f.i.g.a.a.k.k.d.a.f.j.d.f.f.h.k.i.f.f.j.j.j.i.d.k.j.s.d.f.k.f.a.d.j.a.k.k.d.d.a.k.k.d.k.a.j.W ",
"S a.j.k.s.f.g.g.a.j.j.k.k.k.k.k.k.k.k.f.k.a.k.k.j.f.f.j.a.f.a.k.k.s.a.h.k.j.f.k.f.j.j.j.s.f.k.f.a.h.j.a.j.a.f.k.a.j.a.k.f.a.j.R ",
"S a.j.f.f.f.z.k.f.z.v.v.k.k.k.k.f.h.k.h.h.c.f.k.s.b.C.f.k.a.j.h.k.f.k.j.f.c.k.k.z.c.c.f.f.s.a.k.k.f.a.h.n.f.k.f.b.v.f.k.h.f.k.W ",
"S j.k.k.k.f.Z.k.h.v.D.Z.a.k.f.k.h.f.h.f.k.Z.f.k.a.F.L.z.k.h.f.k.k.a.k.k.f.C.f.h.b.L.V.d.k.k.k.k.k.k.a.f.Z.f.k.a.L.V.z.f.j.a.k.R ",
"S k.j.a.k.f.C.k.h.v.H.V.f.k.k.a.h.a.f.h.k.C.f.k.d.D.L.z.h.k.k.f.k.h.k.h.c.m.h.j.v.K.Z.k.f.f.a.k.k.f.k.h.Z.d.k.a.L.L.x.h.k.j.h.W ",
"S k.f.a.k.f.k.k.j.c.L.V.k.k.k.j.j.f.d.f.f.d.f.k.d.D.D.z.h.k.j.k.h.f.a.f.s.f.k.a.b.L.Z.f.h.h.k.h.j.d.h.k.f.f.k.f.F.L.x.k.a.j.k.R ",
"S k.C.m.j.h.k.h.f.z.z.z.k.a.k.a.a.z.Z.f.j.f.k.k.f.c.z.f.k.f.k.k.j.M.m.k.s.h.h.k.f.c.z.k.f.k.k.f.z.Z.k.k.k.f.h.f.c.c.k.a.j.a.k.W ",
"S f.V.B.a.f.g.h.a.j.g.j.x.c.f.j.k.c.D.z.j.k.g.j.g.h.k.f.c.z.j.f.a.V.C.f.k.f.h.a.h.h.f.x.c.f.k.k.c.D.z.k.k.f.h.h.f.f.k.m.z.j.j.W ",
"A a.V.B.j.k.j.f.x.f.j.j.N.D.f.j.k.c.L.f.j.j.j.z.j.j.h.f.D.v.s.h.a.V.N.j.j.f.f.z.f.h.f.b.L.k.k.k.c.L.f.k.k.k.z.f.f.f.f.L.v.j.k.E ",
"S j.B.B.f.k.f.Z.A.j.j.j.v.V.d.f.k.c.D.z.j.a.z.L.c.f.k.d.D.v.k.f.d.A.C.j.f.a.Z.Z.a.k.h.b.D.a.k.k.c.L.f.k.k.z.D.c.j.j.f.L.v.j.h.E ",
"S j.f.f.f.s.a.Z.Z.f.s.s.v.D.f.a.h.f.f.f.k.h.z.D.c.f.j.f.L.v.j.d.f.d.f.f.s.a.B.V.a.k.j.b.D.d.a.f.f.f.f.k.k.c.L.c.k.k.f.D.m.f.a.F ",
"S g.j.k.f.d.a.z.c.f.f.h.f.z.z.B.f.k.k.h.f.k.f.z.f.f.f.a.c.f.m.m.k.k.f.f.s.d.x.x.j.k.a.z.z.z.B.f.a.k.k.f.k.f.c.k.k.j.f.c.f.Z.v.E ",
"S g.j.k.z.v.a.a.a.k.k.k.k.k.c.K.c.f.k.f.b.f.f.k.a.k.h.k.h.k.V.B.f.k.h.n.m.j.h.f.k.j.g.j.j.n.D.x.f.j.f.c.f.h.a.a.k.f.a.k.d.V.N.E ",
"A k.l.f.C.A.d.k.z.f.g.j.k.k.n.D.z.d.p.z.F.c.s.f.f.f.h.s.h.k.V.B.s.f.i.Z.V.j.k.p.f.k.k.a.j.n.L.f.d.z.c.F.c.k.f.p.f.k.h.k.s.V.N.E ",
"Z a.Z.B.N.F.d.d.F.Z.a.a.s.d.c.K.z.m.F.l.L.c.k.m.F.f.f.f.d.a.V.B.d.F.Z.C.V.f.a.F.m.k.h.f.d.z.L.x.c.L.z.L.c.h.m.F.f.h.f.i.s.V.N.F ",
"S f.V.B.d.p.d.d.V.N.a.k.m.A.c.K.z.c.L.l.f.f.k.v.L.d.k.f.F.c.V.B.d.V.N.f.f.a.f.L.C.k.f.m.F.c.L.f.c.L.z.f.k.a.m.L.a.f.f.F.c.V.Z.W ",
"S f.V.C.f.s.f.d.V.m.f.h.v.V.z.c.k.c.D.f.j.a.k.b.L.d.s.i.D.v.z.z.d.Z.Z.f.k.j.f.V.b.s.s.b.H.f.c.f.m.L.f.h.h.s.b.D.d.f.f.L.v.z.z.E ",
"S k.C.c.s.s.s.d.b.n.s.f.z.Z.k.k.k.f.Z.f.f.k.k.z.Z.a.a.d.Z.n.h.s.s.b.c.d.f.j.a.C.z.h.k.n.C.d.d.f.x.C.f.k.s.s.c.C.a.f.k.Z.z.s.s.E ",
"S h.j.a.k.k.f.k.f.j.s.s.k.s.j.j.h.k.a.g.k.f.k.j.f.a.a.a.k.k.f.h.k.d.k.h.j.a.j.d.f.k.f.f.f.k.g.f.j.a.k.f.h.k.f.d.a.k.h.f.f.h.a.E ",
"S f.k.j.k.f.a.k.a.j.i.d.h.f.k.j.f.k.j.f.j.a.g.f.j.i.d.a.k.k.h.f.k.k.k.k.j.s.f.h.s.d.a.k.a.h.h.h.k.f.k.j.f.s.h.h.d.s.f.f.h.f.k.E ",
"S a.k.j.k.f.M.g.j.m.A.C.j.k.h.a.j.k.k.k.k.M.f.k.a.F.A.z.g.k.k.j.k.k.k.k.f.b.k.k.c.D.C.k.k.k.f.h.k.k.k.h.Z.d.k.f.V.D.f.k.k.j.h.W ",
"S a.k.k.k.f.C.g.k.v.L.V.a.f.k.k.k.f.k.a.k.Z.f.k.a.L.L.z.g.k.f.k.f.k.k.f.f.b.h.k.v.H.B.s.f.k.k.h.k.a.f.k.Z.f.k.a.V.L.z.k.k.j.g.W ",
"S k.j.j.j.f.m.s.j.v.H.V.a.k.k.k.k.k.k.f.k.m.f.f.d.J.L.z.k.k.k.k.k.f.k.k.f.m.k.h.v.J.B.j.f.k.k.f.k.h.f.f.m.k.f.f.D.D.c.f.f.a.k.W ",
"S k.l.f.k.k.a.f.k.m.A.Z.f.j.j.k.f.k.f.f.f.a.h.s.a.A.A.x.k.j.f.k.k.f.f.h.h.j.f.h.b.V.C.k.h.k.h.k.f.f.k.f.k.k.f.d.F.F.f.k.j.j.k.R ",
"S s.Z.C.k.k.a.k.k.a.d.d.a.f.k.k.f.n.A.z.s.h.f.f.k.d.d.f.f.a.f.k.a.A.C.j.h.j.h.h.f.f.d.f.d.f.k.k.c.F.f.k.k.h.a.f.i.d.f.d.a.k.j.R ",
"S f.V.B.j.k.k.f.a.k.k.j.m.Z.a.h.f.c.L.f.a.h.a.d.g.h.k.f.Z.m.a.h.a.V.B.a.k.k.f.f.s.k.k.m.Z.f.k.k.v.K.f.f.f.k.a.k.h.h.k.V.n.k.g.R ",
"S j.V.Z.j.k.k.c.b.j.g.k.v.V.d.f.f.c.F.z.a.j.f.Z.c.s.f.f.D.v.f.h.f.V.C.a.k.j.m.m.f.a.k.N.D.d.k.k.c.L.f.k.a.x.C.f.s.s.f.L.v.s.k.R ",
"S a.b.v.h.k.f.Z.V.a.k.h.b.D.d.k.f.x.B.f.k.g.f.D.z.f.h.d.D.v.h.s.j.C.m.j.f.f.B.B.f.k.f.v.S.s.f.k.m.B.k.k.j.z.D.c.s.f.k.D.v.s.k.R ",
"A h.a.f.h.h.f.C.Z.f.k.k.v.D.f.f.a.f.a.h.f.k.z.F.c.h.h.f.F.m.i.f.a.f.f.k.f.k.C.Z.f.k.a.m.F.s.d.f.a.a.k.f.a.z.D.x.s.k.f.D.m.d.a.W ",
"A j.k.f.d.a.h.a.i.k.k.h.d.d.z.D.x.k.g.g.f.k.h.d.d.h.s.s.p.d.V.N.f.k.a.k.f.k.f.d.k.k.k.j.i.c.F.f.k.k.h.a.a.j.d.k.f.h.j.d.a.V.Z.F ",
"A k.a.k.m.B.a.f.k.k.k.g.k.h.c.D.f.k.f.z.Z.c.h.h.h.s.k.k.k.f.Z.N.f.s.f.m.C.f.k.h.f.k.k.f.k.c.J.f.k.k.f.A.n.f.g.s.k.k.f.h.a.V.B.R ",
"A k.a.j.N.V.a.f.k.s.k.k.k.f.z.D.z.f.f.f.L.v.k.h.s.s.k.s.h.f.V.Z.s.f.f.N.V.f.s.f.f.k.f.s.k.x.L.z.f.k.z.L.z.k.h.f.h.k.s.f.f.V.C.R ",
"A k.z.z.N.V.a.j.x.f.g.k.f.s.x.D.z.f.z.z.L.m.g.f.z.f.k.f.s.s.V.N.s.z.x.C.V.f.j.z.f.k.k.k.h.c.J.z.k.z.z.H.z.g.f.z.a.k.k.h.a.V.B.D ",
"R a.V.C.C.A.f.j.V.Z.a.s.f.d.c.J.z.c.D.z.F.n.h.v.L.a.h.j.i.i.V.N.a.A.C.C.V.a.a.F.b.k.k.i.i.c.J.f.m.D.z.F.n.j.C.D.a.f.d.i.i.V.N.F "
};
