/* XPM */
static char *_1a65af7968e420eb11157881e872202[] = {
/* columns rows colors chars-per-pixel */
"64 64 18 1 ",
"  c #CE9A5A",
". c #D29D57",
"X c #D19D5A",
"o c #D5A556",
"O c #D9A556",
"+ c #D6AA55",
"@ c #DAAB55",
"# c #D4A258",
"$ c #D9A759",
"% c #D7A958",
"& c #DBAB58",
"* c #DCB256",
"= c #E0AF57",
"- c #E1B555",
"; c #E3BC54",
": c #E9BE54",
"> c #E4C354",
", c #E9C354",
/* pixels */
"                                                                ",
"                                                                ",
"     oo#                  #o#                  .oo              ",
"    #,>-                  ;>>X                 ;>>.             ",
"    #>>*  X$*            X;>*#  .;X            *>>   X*o        ",
"    .>>*  X@>            X;>*X  o>X            ;>>.  X>#        ",
"    .>>*   @>            X*>>   o>#            *>>   #>$        ",
"  ++ @*o   @;          ++X**+X  o>          #*#%@@.  X>#        ",
" X;*       @:          &>       o>.         o>.      .>o  X     ",
"  ;*        .  @;      **        #  o,.     #>        #  #:$    ",
"  &%           *>      %*           o>X     o-            >%    ",
"               *>                   o,#                  #>%    ",
"               .#                    o                    oX    ",
"                                                                ",
"                                                                ",
"               $**#                 #**o                 X+*$   ",
"  X            @>>#                 %>>*                 X>>*   ",
"  ;>;          *>>%    *>>X         %>>&    o>>$         .>>*#  ",
" X->;          *>>%    *>>#         %>>&    o>>+         X>>*   ",
"  ;>>X         @>>#    *>>#         +>>*    +>,%         #>>*   ",
"  ;>>      $*  ##%     *>>#     #*#  $o     o>>$     X;#  +o#   ",
"  *;*X     &>          %;;#     #>#         +*>&     X,o        ",
"           &:                   o,#                  X,o        ",
"           #+                   #+                    +X        ",
"                                                                ",
"                                                                ",
"                                                                ",
"                                                                ",
"    X;>&                  >>*                 #**>              ",
"    X>>*   X#             >>*    o             *>>#   +X        ",
"    #>>=   &>.            >>>   o>X            *>*    ,o        ",
"    X>>*   &;             *>>   o>             >>>#   >o        ",
"   X#>>=   &;X         X. >>;   o>#          X *>>.  .>$        ",
"  ;-  .    @;          *;       $>.         O:. #     >$   X    ",
"  -*       $*  o+      @;       #@. .@      #>.       *#  @X    ",
"  ;-          X@:X     *;           $>#     #>           .>%    ",
"               *:       X           $>.      .          XX>$    ",
"               %*X                  #;.                  X;X    ",
"                                                          X     ",
"                                                                ",
"                XX                   # #                 X#.    ",
"  XX           *>,%                 %>>&                 .>,*   ",
"  =@@          *>>%    %**          +>>&    o**o         X>>*   ",
"  -,:          &>>#    &>>$         %>>&    o>>%         X>>*   ",
"  ;>;          *>>#    &>>#         $>>*    #>>%         #>>;   ",
"  ;>>      .o  %**#    *>>#      #  #;*$    o>>%      oX X;*&   ",
"  ;>;      &>   XX     *>>#     $>.         #>>%     .>$        ",
"  #+o      &>          #o+      #>.          ++.      >$        ",
"           $;                   o;#                  X:#        ",
"            X                                                   ",
"                                                                ",
"                                                                ",
"      X                                                         ",
"     $%#                  %+%                  o%oX             ",
"    .>>-                  >>:                  ;>,.             ",
"    .>>-  X$*             ;>;   .;.            *>>    ;#        ",
"    X>>*   $:             >>;   $>.            ->>X  X>#        ",
"    X>>-   =;             :>;   #>.            ;>>   X>$        ",
"  @&.%+#   &>          %* %@$   #>.         X*Xo%@X  X>#        ",
" X;- .     $;  .       *;       #,#         O,.  X   X,#        ",
"  -*        X  %;      *;        X  %>.     o>.       X   :$    ",
"  =@           *:X     %*           $>X     .-           .>$    ",
"               *;.                  %,#     X            #>$    ",
"               .#                    #                    #X    "
};
