/* XPM */
static char *ea779dda71eb41e5c3e14dd2197eb06b[] = {
/* columns rows colors chars-per-pixel */
"64 64 141 2 ",
"   c black",
".  c gray11",
"X  c #1F2122",
"o  c #202020",
"O  c gray17",
"+  c #353739",
"@  c gray26",
"#  c #005FB8",
"$  c #0060B8",
"%  c #0160B8",
"&  c #0D62B9",
"*  c #1F67BA",
"=  c #2368BA",
"-  c #2468BA",
";  c #3470BD",
":  c #3E72BD",
">  c #4A78BF",
",  c #4278C0",
"<  c #4A7DC1",
"1  c #4D7EC1",
"2  c #5182C3",
"3  c #5383C3",
"4  c #668CC6",
"5  c #6390C8",
"6  c #6995CA",
"7  c #749ECE",
"8  c #759ECF",
"9  c #76A0CF",
"0  c #7EA7D2",
"q  c #839ECE",
"w  c #86A3D0",
"e  c #81A9D4",
"r  c #80ABD6",
"t  c #87AED6",
"y  c #95ADD5",
"u  c #8CB4D8",
"i  c #8EB6DA",
"p  c #8FBBDF",
"a  c #91B9DB",
"s  c #96B8DB",
"d  c #94BCDC",
"f  c #98BBDC",
"g  c #97C0DE",
"h  c #99C0DE",
"j  c #9DC0DF",
"k  c #BCC5DF",
"l  c #96C3E2",
"z  c #9BC2E0",
"x  c #9AC4E1",
"c  c #9FC6E2",
"v  c #A1C7E2",
"b  c #A5C6E1",
"n  c #A6C6E1",
"m  c #A1C8E3",
"M  c #A2C8E2",
"N  c #A4C9E3",
"B  c #A5C9E3",
"V  c #A0CBE5",
"C  c #A6CAE4",
"Z  c #A8CAE4",
"A  c #A9CBE4",
"S  c #ADCBE4",
"D  c #ADCCE4",
"F  c #ADCEE5",
"G  c #B3C6E0",
"H  c #B3CDE5",
"J  c #B7CEE5",
"K  c #ADD3E9",
"L  c #AED4E9",
"P  c #AAD8EC",
"I  c #B1D1E7",
"U  c #B3D2E7",
"Y  c #B4D3E8",
"T  c #B3D4E9",
"R  c #B1D7EB",
"E  c #B2D7EB",
"W  c #BFD3E8",
"Q  c #B8D4E8",
"!  c #BAD9EB",
"~  c #BDDBED",
"^  c #BFDDED",
"/  c #BCE3F0",
"(  c #D8D8D8",
")  c #DADADD",
"_  c #CBD2E6",
"`  c #C6D5E8",
"'  c #C4D7EB",
"]  c #C5DBEC",
"[  c #C1DCED",
"{  c #C8DAEB",
"}  c #CBDEED",
"|  c #C4E0EF",
" . c #CDE0EE",
".. c #CFE1EF",
"X. c #D1E1EE",
"o. c #D9E2EF",
"O. c #DDE5ED",
"+. c #C8E1F0",
"@. c #CCE1F0",
"#. c #D1E3F1",
"$. c #D5E4F1",
"%. c #D6E7F2",
"&. c #DEE6F1",
"*. c #D6E9F3",
"=. c #D8E9F3",
"-. c #DDECF5",
";. c gray91",
":. c #E1E4F0",
">. c #E0E8F2",
",. c #E3ECF5",
"<. c #E6EFF5",
"1. c #E7EFF6",
"2. c #E8EBF3",
"3. c #ECEEF5",
"4. c #E9F0F6",
"5. c #E3F7FC",
"6. c #ECF3F8",
"7. c #ECF2F9",
"8. c #EEF4F9",
"9. c #EFF5FA",
"0. c #EFF7FF",
"q. c #EDFAFC",
"w. c #F1F1F1",
"e. c #F3F3F3",
"r. c #F0F1F7",
"t. c #F4F5F7",
"y. c gray97",
"u. c #F0F5FA",
"i. c #F1F6FB",
"p. c #F4F5F9",
"a. c #F2F8FB",
"s. c #F3FAFD",
"d. c #F7F9FC",
"f. c #F7FCFD",
"g. c #F5FCFE",
"h. c #F9F9F9",
"j. c #F8F8FB",
"k. c #FBFBFD",
"l. c #FBFCFD",
"z. c gray99",
"x. c #FEFFFF",
/* pixels */
"$ $ $ $ $ $ $ $ $ $ $ $ $ $ $ $ % % % % % % % % % % % % % % % % % % % % % % % % % % % % % % % % % % % % % % % % % % % % % % % % ",
"$ $ $ $ $ $ $ $ $ $ $ $ $ $ $ $ % % % % % % % % % % % % % % % % % % % % % % % % % % % % % % % % % % % % % % % % % % % % % % % % ",
"$ $ $ $ $ $ $ $ $ $ $ $ $ $ $ $ % % % % % % % % % % % % % % % % % % % % % % % % % % % % % % % % % % % % % % % % % % % % % % % % ",
"$ $ $ $ $ $ $ $ $ $ $ $ $ $ $ $ % % % % % % % % % % % % % % % % % % % % % % % % % % % % % % % % % % % % % % % % % % % % % % % % ",
"$ $ $ $ $ $ $ $ $ $ $ $ $ $ $ $ % % % % % % % % % % % % % % % % % % % % % % % % % % % % % % % % % % % % % % % % % % % % % % % % ",
"$ $ $ $ $ $ $ $ $ $ $ $ * $ 3 z v 8 : % % % % % % % % % % % % % % % % % % % % % % % % % % % 0 h c m a % % % % % % % % % % % % % ",
"$ $ $ $ $ $ $ $ $ $ c T T T T Y 4.*.[ *.e % % % % % % % % % % % % % % % % % % % % % % % % 8 m 9.g.x.4.c % % % % % % % % % % % % ",
"$ $ $ $ $ $ $ $ $ R x.d.3.x.x.p.x.x.x.x.T v % % % % % % % % % % % % % % % % % % % % % % > x d.x.l.x.x.,.a % % % % % % % % % % % ",
"$ $ $ $ $ $ $ $ V x.x.x.x.x.x.x.x.x.x.x.x.-.e & $ $ $ $ $ $ $ $ % % % % % % % % % % % % i I x.x.O.t.l.x.B > % % % % % % % % % % ",
"$ $ $ $ $ $ $ , } x.x.x.x.x.x.x.x.x.x.x.x.x.x.% $ $ $ $ $ $ $ $ % % % % % % % % % % % % v x.x.x.  X x.x.B 8 % % % % % % % % % % ",
"$ $ $ $ $ $ $ n a.x.x.x.x.k.k.x.x.. o ;.x.x.x.u.$ $ $ $ $ $ $ $ % % % % % % % % % % % % Q 9.j.x.d.<.x.x.{ 9 % % % % % % % % % % ",
"$ $ $ $ $ $ 1 +.x.x.x.x.x.x.u.k.x.) w.x.x.x.x.x.V $ $ $ $ $ $ $ % % % % % % % % % % % % v x.l.j.+   j.x.&.a % % % % % % % % % % ",
"$ $ $ $ $ $ w %.x.x.x.x.x.x.7.k.x.j.x.x.x.x.x.x.T $ $ $ $ $ $ $ % % % % % % % % % % % % v x.x.x.r.x.l.x.W 7 % % % % % % % % % % ",
"$ $ $ $ $ $ 8 k.x.x.x.k.x.u.3.k.x.x.x.x.x.x.x.| L $ $ $ $ $ $ $ % % % % % % % % % % % % D u.x.x.x.x.j.x.H 9 % % % % % % % % % % ",
"$ $ $ $ # $ v 2.j.x.x.x.x.p.7.x.x.O @ x.x.x.k.*.V $ $ $ $ $ $ $ % % % % % % % % % % % % f Q x.j.x.x.x.k.j < % % % % % % % % % % ",
"$ $ $ $ # - ~ _ :.x.x.x.x.x.x.x.x.j.( x.x.x.r.K 3 $ $ $ $ $ $ $ % % % % % % % % % % % % 8 H x.x.x.x.l.y 8 % % % % % % % % % % % ",
"$ $ $ $ $ $ v p.k x.x.x.x.x.3.x.x.x.x.x.x.x.p.T $ $ $ $ $ $ $ $ $ $ $ $ $ $ $ $ % % % % % a g o.u.%.c # % % % % % % % % % % % % ",
"$ $ $ $ $ $ $ @.x.p.k.k.x.x.x.x.x.x.x.x.x.x.G e $ $ $ $ $ $ $ 8 m c v a a $ $ $ % % % % % % < 8 a 8 # # % % % % % % % % % % % % ",
"$ $ $ $ $ $ $ 3 T +.x.k k x.x.x.k.j.x.x.x.] T $ $ $ $ $ $ $ $ e / 5.s.L d < $ $ % % % % % % % % % % % % % % % % % % % % % % % % ",
"$ $ $ $ $ $ $ # = z T ! =.#.&.p.x.o.o.Y T J $ $ $ $ $ $ $ $ a I x.x.l.x.c i $ $ % % % % % % % % % % % % % % % % % % % % % % % % ",
"$ $ $ $ $ $ $ $ $ $ $ 4 A x c T v m m t 9 $ $ $ $ $ $ $ $ 8 B x.x.k.4.l.g.s 8 $ % % % % % % % % % % % % % % % % % % % % % % % % ",
"$ $ $ $ $ $ $ $ $ $ $ $ $ $ $ $ = $ $ $ $ $ $ $ $ $ $ $ # 8 [ x.l.x.    x.C i $ % % % % % % % % % % % % % % % % % % % % % % % % ",
"$ $ $ $ $ $ $ $ $ $ $ $ $ $ $ $ $ $ $ $ $ $ $ $ $ $ $ $ # > I x.x.l.0.0.l.<.a % % % % % % % % % % % % % % % % % % % % % % % % % ",
"$ $ $ $ $ $ $ $ $ $ $ $ $ $ $ $ $ $ $ $ $ $ $ $ $ $ $ $ $ > I x.x.p.    l.} a % % % % % % % % % % % % % % % % % % % % % % % % % ",
"$ $ $ $ $ $ $ $ $ $ $ $ $ $ $ $ $ $ $ $ $ $ $ $ $ $ $ $ $ 8 ..x.x.x.d.j.q.' a $ % % % % % % % % % % % % % % % % % % % % % % % % ",
"$ $ $ $ $ $ $ $ $ $ $ $ $ $ $ $ $ $ $ $ $ $ $ $ $ $ $ $ # 8 L x.k.x.k.x.x.p 8 $ % % % % % % % % % % % % % % % % % % % % % % % % ",
"$ $ $ $ $ $ $ $ $ $ $ $ $ $ $ $ $ $ $ $ $ $ $ $ $ $ $ $ $ # z 9.x.7.a.a.5.i i # % % % % % % % % % % % % % % % % % % % % % % % % ",
"$ $ $ $ $ $ $ $ $ $ $ $ $ $ $ $ $ $ $ $ $ $ $ $ $ $ $ $ $ $ 9 P x.x.x.d.l 8 % # % % % % % % % % % % % % % % % % % % % % % % % % ",
"$ $ $ $ $ $ $ $ $ $ $ $ $ $ $ $ $ $ $ $ $ $ $ $ $ $ $ $ $ $ $ m ..q.l.j c % % % % % % % % % % % % % % % % % % % % % % % % % % % ",
"$ $ $ $ $ $ $ $ $ $ $ $ $ $ $ $ $ $ $ $ $ $ $ $ $ $ $ $ $ $ $ a a a m a % % % % % % % % % % % % % % % % % % % % % % % % % % % % ",
"$ $ $ $ $ $ $ $ $ $ $ $ $ $ $ $ $ $ $ $ $ $ $ $ $ $ $ $ $ $ $ $ % < 6 ; % % % % % % % % % % % % % % % % % % % % % % % % % % % % ",
"$ $ $ $ $ $ $ $ $ $ $ $ $ $ $ $ $ $ $ $ $ $ $ $ $ $ $ $ $ $ $ $ % % % % % % % % % % % % % % % % % % % % % % % % % % % % % % % % ",
"% % % % % % % % % % % % % % % % $ $ $ $ $ $ $ $ % % % % % % % % % % % % % % % % % % % % % % % % % % % % % % % % % % % % % % % % ",
"% % % % % % % % % % % % % % % % $ $ $ $ $ $ $ $ % % % % % % % % % % % % % % % % % % % % % % % % % % % % % % % % % % % % % % % % ",
"% % % % % % % % % % % % % % % % $ $ $ $ $ $ $ $ % % % % % % % % % % % % % % % % % % % % % % % % % % % % % % % % % % % % % % % % ",
"% % % % % % % % % % % % % % % % $ $ $ $ $ $ $ $ % % % % % % % % % % % % % % % % % % % % % % % % % % % % % % % % % % % % % % % % ",
"% % % % % % % % % % % % % % % % $ $ $ $ $ $ $ $ % % % % % % % % % % % % % % % % % % % % % % % % % % % % % % % % % % % % % % % % ",
"% % % % % % % % % % % % % % % % $ $ $ $ $ $ $ $ % % % % % % % % % % % % % % % % % % % % % % % % % % % % % % % % % % % % % % % % ",
"% % % % % % % % % % % % % % % % $ $ $ $ $ 9 9 $ % % % % % % % % % % % % % % % % % % % % % % % % % % % % % % % % % % % % % % % % ",
"% % % % % % % % % % % % % % % % $ $ d m V c c c j % % % % % % % % % % % % % % % % % % % % % % % % % % % % % % % % % % % % % % % ",
"% % % % % % % % % % % % % % % % $ a D 3.l.x.t.k j 0 % % % % % % % % % % % % % % % % % % % % % % % % % % % % % % % % % % % % % % ",
"% % % % % % % % % % % % % % % % 9 ..x.x.x.x.x.x.j m % % % % % % % % % % % % % % % % % % % % % % % % % % % % % % % % % % % % % % ",
"% % % % % % % % % % % % % % % 0 m z.x.p.x.x.x.x.{ m < % % % % % % % % % % % % % % % % % % % % % % % % % % % % % % % % % % % % % ",
"% % % % % % % % % % % % % % % j F g.z.x.x.x.x.x.g.m j % % % % % % % % % % % % % % % % % % % % % % % % % % % % % % % % % % % % % ",
"% % % % % % % % % % % % % % # Z u.x.x.x.x.e.z.x.x.I c > $ $ $ $ % % % % % % % % % % % % % % % % % % % % % % % % % % % % % % % % ",
"% % % % % % % % % % % % % % % m x.x.x.x.x.. o t.x.X.u 8 $ $ $ $ % % % % % % % % % % % % % % % % % % % % % % % % % % % % % % % % ",
"% % % % % % % % % % % % % % < Q x.x.x.x.x.z.z.x.x.{ s 8 $ $ $ $ % % % % % % % % % % % % % % % % % % % % % % % % % % % % % % % % ",
"% % % % % % % % % % % % % % > Q x.x.x.j.x.x.x.x.x.6.j 5 $ $ $ $ % % % % % % % % % % % % % % % % % % % % % % % % % % % % % % % % ",
"% % % % % % % % % % % % % % < Q x.x.x.x.x.x.x.x.x.j.m > $ $ $ $ % % % % % % % % % % % % % % % % % % % % % % % % % % % % % % % % ",
"% % % % % % % % % % % % % % < D x.x.x.x.x.. . x.x.n j % $ $ $ $ % % % % % % % % % % % % % % % % % % % % % % % % % % % % % % % % ",
"% % % % % % % % % % % % % % < I z.x.x.x.x.x.x.x.x.c 5 % $ $ $ $ % % % % % % % % % % % % % % % % % % % % % % % % % % % % % % % % ",
"% % % % % % % % % % % % % % % v x.x.x.x.x.x.x.x.A c % % $ $ $ $ % % % % % % % % % % % % % % % % % % % % % % % % % % % % % % % % ",
"% % % % % % % % % % % % % % % v x.x.x.x.x.x.x.9.m 7 $ $ $ $ $ $ % % % % % % % % % % % % % % % % % % % % % % % % % % % % % % % % ",
"% % % % % % % % % % % % % % % c ` x.x.x.x.x.9.v h $ $ $ $ $ $ $ % % % % % % % % % % % % % % % % % % % % % % % % % % % % % % % % ",
"% % % % % % % % % % % % % % % j m Q 9.u.o.c m s $ $ $ $ $ $ $ $ % % % % % % % % % % % % % % % % % % % % % % % % % % % % % % % % ",
"% % % % % % % % % % % % % % % % a m c m m B 0 % $ $ $ $ $ $ $ $ % % % % % % % % % % % % % % % % % % % % % % % % % % % % % % % % ",
"% % % % % % % % % % % % % % % % % % % q k < % % % % % % % % % % % % % % % % % % % % % % % % % % % % % % % % % % % % % % % % % % ",
"% % % % % % % % % % % % % % % % % % % % % % % % % % % % % % % % % % % % % % % % % % % % % % % % % % % % % % % % % % % % % % % % ",
"% % % % % % % % % % % % % % % % % % % % % % % % % % % % % % % % % % % % % % % % % % % % % % % % % % % % % % % % % % % % % % % % ",
"% % % % % % % % % % % % % % % % % % % % % % % % % % % % % % % % % % % % % % % % % % % % % % % % % % % % % % % % % % % % % % % % ",
"% % % % % % % % % % % % % % % % % % % % % % % % % % % % % % % % % % % % % % % % % % % % % % % % % % % % % % % % % % % % % % % % ",
"% % % % % % % % % % % % % % % % % % % % % % % % % % % % % % % % % % % % % % % % % % % % % % % % % % % % % % % % % % % % % % % % ",
"% % % % % % % % % % % % % % % % % % % % % % % % % % % % % % % % % % % % % % % % % % % % % % % % % % % % % % % % % % % % % % % % ",
"% % % % % % % % % % % % % % % % % % % % % % % % % % % % % % % % % % % % % % % % % % % % % % % % % % % % % % % % % % % % % % % % "
};
