/* XPM */
static char *_14824aa68444fdf900887af0b500a94[] = {
/* columns rows colors chars-per-pixel */
"64 64 194 2 ",
"   c #020202",
".  c #050804",
"X  c #1D1D1D",
"o  c #1F3011",
"O  c #22340E",
"+  c #2A3E0F",
"@  c #293B14",
"#  c #2D3B1B",
"$  c #262824",
"%  c #2B2A29",
"&  c #2E3525",
"*  c #2B3921",
"=  c #373A39",
"-  c #5E2E0F",
";  c #57330E",
":  c #452717",
">  c #592D10",
",  c #4B3511",
"<  c #463C14",
"1  c #4D3B15",
"2  c #5B3115",
"3  c #573C13",
"4  c #602F0D",
"5  c #63320E",
"6  c #6C340E",
"7  c #6C380C",
"8  c #72360C",
"9  c #75380E",
"0  c #7B3B0D",
"q  c #633112",
"w  c #6C3311",
"e  c #673915",
"r  c #6E3A14",
"t  c #733613",
"y  c #763812",
"u  c #7C3C13",
"i  c #623C28",
"p  c #324D0F",
"a  c #34530C",
"s  c #355A0D",
"d  c #385B08",
"f  c #395D0E",
"g  c #264111",
"h  c #2D4412",
"j  c #2F4B11",
"k  c #314714",
"l  c #324C14",
"z  c #3A4B12",
"x  c #3A4619",
"c  c #334B1A",
"v  c #365315",
"b  c #3A5515",
"n  c #365913",
"m  c #3B5C14",
"M  c #365319",
"N  c #3A541B",
"B  c #3C5C1A",
"V  c #366600",
"C  c #3A6500",
"Z  c #3C640D",
"A  c #3E6A0D",
"S  c #3D6313",
"D  c #3E6912",
"F  c #3E621A",
"G  c #334323",
"H  c #394D23",
"J  c #395527",
"K  c #3D5B24",
"L  c #3A4334",
"P  c #4C4512",
"I  c #5B4111",
"U  c #564B11",
"Y  c #544C19",
"T  c #435314",
"R  c #405C1D",
"E  c #624516",
"W  c #416B0E",
"Q  c #4A7F07",
"!  c #45740D",
"~  c #477B09",
"^  c #477B0C",
"/  c #4A7D0D",
"(  c #416613",
")  c #436C14",
"_  c #41631A",
"`  c #446B19",
"'  c #457313",
"]  c #497514",
"[  c #467913",
"{  c #4A7C13",
"}  c #467219",
"|  c #4A721A",
" . c #4B791A",
".. c #425D22",
"X. c #435E2D",
"o. c #41433B",
"O. c #5A4237",
"+. c #445A33",
"@. c #46563C",
"#. c #455D3C",
"$. c #416324",
"%. c #44632D",
"&. c #4B6539",
"*. c #444343",
"=. c #4D4D4B",
"-. c #485F40",
";. c #4F5E4C",
":. c #545554",
">. c #5A5958",
",. c #4A6543",
"<. c #536C44",
"1. c #50624B",
"2. c #55694E",
"3. c #536454",
"4. c #576B53",
"5. c #59645E",
"6. c #5A6D5D",
"7. c #62695C",
"8. c #5D7064",
"9. c #636364",
"0. c #6A6A6A",
"q. c #62766B",
"w. c #677569",
"e. c #687C75",
"r. c #707171",
"t. c #787E72",
"y. c #823D0D",
"u. c #8A3F0E",
"i. c #8F4307",
"p. c #85400D",
"a. c #8C420B",
"s. c #954303",
"d. c #984202",
"f. c #92430A",
"g. c #884313",
"h. c #478203",
"j. c #498202",
"k. c #47810A",
"l. c #4A800B",
"z. c #4B8010",
"x. c #77827A",
"c. c #82857F",
"v. c #7B8784",
"b. c #7B8C8A",
"n. c #7C928B",
"m. c #848583",
"M. c #8D8D8B",
"N. c #839697",
"B. c #8A9B9A",
"V. c #979997",
"C. c #999A98",
"Z. c #A09F9E",
"A. c #8EA19C",
"S. c #A2A49E",
"D. c #A3A99D",
"F. c #93A8A9",
"G. c #99ABAE",
"H. c #98B2AE",
"J. c #9AB3B3",
"K. c #9DB7B9",
"L. c #9FB9BB",
"P. c #A5A5A3",
"I. c #AAABA9",
"U. c #A0B4B6",
"Y. c #A4BBBF",
"T. c #B2B3B2",
"R. c #B9B8B8",
"E. c #A4BEC1",
"W. c #A5C2C3",
"Q. c #ABC5C6",
"!. c #B2CACD",
"~. c #ADCFD1",
"^. c #B4D3D4",
"/. c #B7D8DA",
"(. c #BEE1E2",
"). c #C6C5C5",
"_. c #C7C8C7",
"`. c #D6D5D6",
"'. c #C2E3E4",
"]. c #C4E5E9",
"[. c #C4EBEC",
"{. c #C9ECED",
"}. c #C7F1EE",
"|. c #CBF3F4",
" X c #CBF6FA",
".X c #CBFBFF",
"XX c #D1F4F6",
"oX c #D2F9FA",
"OX c #E4E4E4",
"+X c #E7E9E7",
"@X c #EDEEEC",
"#X c #F5F4F4",
"$X c #F8FAF7",
"%X c #FEFEFD",
/* pixels */
".X.X.X.X.X.X.X.X.X.X.X.X.X.X.X.X.X.X.X.X.X.X.X.X.X.X.X.X.X.X.X.X.X.X.X.X.X.X.X.X.X.X.X.X.X.X.X.X.X.X.X.X.X.X.X.X.X.X.X.X.X.X.X.X",
".X.X.X.X.X.X.X.X.X.X.X.X.X.X.X.X.X.X.X.X.X.X.X.X.X.X.X.X.X.X.X.X.X.X.X.X.X.X.X.X.X.X.X.X.X.X.X.X.X.X.X.X.X.X.X.X.X.X.X.X.X.X.X.X",
".X.X.X.X.X.XXXXXoXoXoXoXoXoXoX.X.X X.X.X.X XoXoXoXoXoXoX.X X.X.X.X.X.X.X.X.X.X.X.X.X.X.X.X.X.X.X.X.X.X.X.X.X.X.X.X.X.X.X.X.X.X.X",
".X.X.X.X|.Y.2.W C V V V V V d x.Q. X.X.X.XY.&.C V V C 4.K.XX.X.X.X.X.X.X.X.X.X.X.X.X.X.X.X.X.X.X.X.X.X.X.X.X.X.X.X.X.X.X.X.X.X.X",
".X.X.X{.3. .j.j.j.j.j.j.j.j.j.l.( b. X X!.X.j.h.j.j.j.h.[ J G.|..X.X.X.X.X.X.X.X.X.X.X.X.X.X.X.X.X.X.X.X.X.X.X.X.X.X.X.X.X.X.X.X",
".X.X'.1.{ j.j.j.j.j.j.j.j.j.j.j.Q | B.q.` { j.j.j.j.j.j.h.h.} B..X.X.X.X.X.X.X.X.X.X.X.X.X.X.X.X.X.X.X.X.X.X.X.X.X.X.X.X.X.X.X.X",
".X].3.{ h.j.j.j.j.j.j.j.j.j.j.j.h.Q v  .j.j.j.j.j.j.j.j.h.j.j.` L. X.X.X.X.X.X.X.X.X.X.X.X.X.X.X.X.X.X.X.X.X.X.X.X.X.X.X.X.X.X.X",
"}.6.k.h.j.j.j.j.j.j.j.j.j.j.j.j.h.h.{ m j.j.j.j.j.j.j.j.h.h.j.j.m ^..X.X.X.X.X.X.X.X.X.X.X.X.X.X.X.X.X.X.X.X.X.X.X.X.X.X.X.X.X.X",
"U. .j.j.j.j.l.j.j.l./ { ] ' ) ' ' ' ] R l.h.Q j.j.j.j.h.j.h.j.j.l.8.|..X.X.X.X.X.X.X.X.X.X.X.X.X.X.X.X.X.X.X.X.X.X.X.X.X.X.X.X.X",
"%.Q j.j.j.j.h.{ S B R Z ) [ ! [ ! [ S @ ] h.h.Q j.j./ l./ k.l.h.j.' W..X.X.X.X.X.X.X.X.X.X.X.X.X.X.X.X.X.X.X.X.X.X.X.X.X.X.X.X.X",
"j.j.j.j.h.j.! c [ Q h.h.h.j.Q h.j.j.j.l.b n k.{ ( b n _ _ _ v m { { e..X.X.X.X.X.X.X.X.X.X.X.X.X.X.X.X.X.X.X.X.X.X.X.X.X.X.X.X.X",
"j.j.j.j.j.! c { h.h.h.j.j.h.h.h.j.j.j.h.h.m G _ ' Q Q h.h.h.Q { S M k (..X.X.X.X.X.X.X.X.X.X.X.X.X.X.X.X.X.X.X.X.X.X.X.X.X.X.X.X",
"j.j.j.j.j./ / j.j.j.j.j.j.j.j.j.j.j.j.j.j.j.) c / j.j.j.j.j.h.j.h.h.| q.'. X.X.X.X.X.X.X.X.X.X.X.X.X.X.X.X.X.X.X.X.X.X.X.X.X.X.X",
"j.j.j.j.j.j.j.j.j.j.j.j.j.j.j.j.j.j.j.j.j.j.j.` m h.j.j.j.j.j.j.j.h.j.{ -.E..X.X.X.X.X.X.X.X.X.X.X.X.X.X.X.X.X.X.X.X.X.X.X.X.X.X",
"j.j.j.j.j.j.j.j.j.h.j.j.j.j.j.j.j.j.l.j.j.j.h.j.l ^ j.j.j.j.j.j.j.j.j.h.Q m Q..X.X.X.X.X.X.X.X.X.X.X.X.X.X.X.X.X.X.X.X.X.X.X.X.X",
"j.j.j.j.j.j.j.j.j.j.h.j.Q j.l.j.l.j.j.j.j.l.l.k.] m h.j.j.j.j.j.j.j.j.j.h.Q M (..X.X.X.X.X.X.X.X.X.X.X.X.X.X.X.X.X.X.X.X.X.X.X.X",
"j.j.j.j.j.j.j./ ) n R ( m B x k c k o H R m m c W l / h.j.j.j.h.j.k.~ / ! ' D =.[..X.X.X.X.X.X.X.X.X.X.X.X.X.X.X.X.X.X.X.X.X.X.X",
"j.j.j.j.j.j.( N ) / / ~ ] ) ' W ) ] { S a v ~ Q ( c f h.j.j.j.h.` b b S S D ' ` 4.K..X.X.X.X.X.X.X.X.X.X.X.X.X.X.X.X.X.X.X.X.X.X",
"j.j.j.j.Q | N { ) v n W A ! ! ! ! n N Z k.] k ^ l.D p k.j.j.j.l.` z f Z A D A ( s & F.|..X.X.X.X.X.X.X.X.X.X.X.X.X.X.X.X.X.X.X.X",
"j.j.j.j.) N ] k ( k.l.j.h.h.j.j.l.h.Q ) l ] ! p A l.( m l.h.^ n m } f N B B B b ! S o.W..X.X.X.X.X.X.X.X.X.X.X.X.X.X.X.X.X.X.X.X",
"j.j.h./ c k.M { l.h.j.j.j.h.h.h.h.Q j.Q / n z F b F l.l l.k.c ' F j } l.j.~ j.{ v ' x. X.X.X.X.X.X.X.X.X.X.X.X.X.X.X.X.X.X.X.X.X",
"j.j.h.{ c m c } Z &.<.<.&.f +.H + + + x.S.D.P.0.v B ) s / k.{ m L n s d %.<.F / [ O n..X.X.X.X.X.X.X.X.X.X.X.X.X.X.X.X.X.X.X.X.X",
"j.j.h.j./ ] ) @.T.+X%X$XV.r.T.  $ .   =.@X%X%X%XI.' l S ! l.` V.9.:.    X ).+XV.#.* v..X.X.X.X.X.X.X.X.X.X.X.X.X.X.X.X.X.X.X.X.X",
"j.j.j.j.h.h.h.k.! R c.).  *.0.  :.`.R.= OX%X%X%X@Xs } v ~ ^ m.P.m.S.  *.Z.=.%X%X$XR.:. X.X.X.X.X.X.X.X.X.X.X.X.X.X.X.X.X.X.X.X.X",
"j.j.j.j.j.j.j.j.j.l.^ G .   P.  0.#XP.  OX%X%X%X%Xc.z.v Q x +X        P.$X*.%X%X%X@X=  X.X.X.X.X.X.X.X.X.X.X.X.X.X.X.X.X.X.X.X.X",
"j.j.j.j.j.j.j.j.m _ l.k.( O .           @X%X%X%X%X`.( W / 7.+X  % M.  >.M.X $X%X+Xc.R  X.X.X.X.X.X.X.X.X.X.X.X.X.X.X.X.X.X.X.X.X",
"j.j.j.j.j.j.j.j.k.S v l.j.k.{ ) g     r.%X%X%X%X+X_.& D ~ w.I..   .     % C.`._.t.| q..X.X.X.X.X.X.X.X.X.X.X.X.X.X.X.X.X.X.X.X.X",
"j.j.j.j.j.j.j.j.h.h.( j W { Q h.l.! S J C.P.P.S.X.]  .v l.l. .A ( W W ( ( A W  .{ 6.[..X.X.X.X.X.X.X.X.X.X.X.X.X.X.X.X.X.X.X.X.X",
"j.j.j.j.j.j.j.j.h.h.j./ W n b n f A ' ] / z.{ z.^ ( v W h.( ! ' l.j.h.h.j.Q ~ ! @ ~..X.X.X.X.X.X.X.X.X.X.X.X.X.X.X.X.X.X.X.X.X.X",
"j.j.j.j.j.j.j.j.j.j.j.j.h.Q j.z.^ ! ' Z f Z S b # ) l.j.Q ~ b $ N b ( / j.~ S B * K..X.X.X.X.X.X.X.X.X.X.X.X.X.X.X.X.X.X.X.X.X.X",
"j.j.j.Q Q l.h.j.j.j.j.j.h.j.j.h.l.j.j.j.h.h.h.S m l.h.j.h.h.j.' k ) j.Q h.m N v ^ n /..X.X.X.X.X.X.X.X.X.X.X.X.X.X.X.X.X.X.X.X.X",
"j.j.l._ T { h.h.j.j.j.j.j.j.j.j.j.j.j.j.j.l.b b h.h.h.j.j.j.j.h.z.p ) h.h.k.l.h.h.k.x..X.X.X.X.X.X.X.X.X.X.X.X.X.X.X.X.X.X.X.X.X",
"h.h.l.j.Q Q j.j.j.j.j.j.j.j.h.h.j.j.j.j.{ l ( j.j.j.j.j.j.j.j.j.h.j.a ( h.h.j.j.h.h.d !. X.X.X.X.X.X.X.X.X.X.X.X.X.X.X.X.X.X.X.X",
"h.h.k.M f R / h.j.j.j.j.j.h.h.h.h.Q ' l n ] j.j.j.j.j.j.j.j.j.j.j.j./ ( l.h.j.j.h.h.( O.[..X.X.X.X.X.X.X.X.X.X.X.X.X.X.X.X.X.X.X",
"h.) M N ( ! Q j.j.j.j.j.j.j.h.Q ( z b Q h.h.j.j.j.j.j.j.j.j.j.j.j.j.j.h.j.j.j.j.j.k.b g.K..X.X.X.X.X.X.X.X.X.X.X.X.X.X.X.X.X.X.X",
"h.] ' r y.0 4 1 Z l.Q Q h.h.h.h.~ l.h.j.h.h.j.j.j.j.j.j.j.j.j.j.j.j.j.j.j.j.j.j.j.z.; g.H..X.X.X.X.X.X.X.X.X.X.X.X.X.X.X.X.X.X.X",
"j.j.' u u.0 y.u.y.3 v S W { Q h.h.l.j.j.j.j.j.j.j.j.j.j.j.j.j.j.j.j.j.j.j.j.j.j.h.Z 0 0.|..X.X.X.X.X.X.X.X.X.X.X.X.X.X.X.X.X.X.X",
"j.j./ z 0 u.8 > y.s.f.p.0 5 2 Y b ! h.j.j.h.j.j.j.j.j.j.j.j.j.j.j.j.j.j.j.j.j.h.' 1 i /..X.X.X.X.X.X.X.X.X.X.X.X.X.X.X.X.X.X.X.X",
"j.j.l.h.( , p.f.q 5 0 f.f.d.s.s.a.r P T f Z ) / z.j.j.j.h.j.h.h.j.j.j.j.j.j.^ z 6 u n..X.X.X.X.X.X.X.X.X.X.X.X.X.X.X.X.X.X.X.X.X",
"j.j.j.h.Q { z y f.u.y.4 - 8 u.f.s.s.s.f.f.u.0 7 7 E U U U U U U U U U U U U 3 p.0 : /..X.X.X.X.X.X.X.X.X.X.X.X.X.X.X.X.X.X.X.X.X",
"j.j.j.j.j.j.l.W z 9 u.d.f.u.y 5 2 e 7 q t 0 y.f.s.s.s.s.s.s.s.s.d.s.s.s.s.s.f.0 > a.F..X.X.X.X.X.X.X.X.X.X.X.X.X.X.X.X.X.X.X.X.X",
"j.j.j.j.j.j.j.j.l.' f , u.d.d.s.s.s.s.s.a.y.9 q 2 w w w w w w r w w w w w 6 2 6 s.u.B..X.X.X.X.X.X.X.X.X.X.X.X.X.X.X.X.X.X.X.X.X",
"j.j.j.j.j.j.j.j.j.h.l.{ < y.s.s.s.s.s.s.s.s.s.s.s.s.s.s.s.s.i.s.s.s.s.s.s.s.s.s.u.i ^..X.X.X.X.X.X.X.X.X.X.X.X.X.X.X.X.X.X.X.X.X",
"j.j.j.j.j.j.j.j.j.j.j.j.Q m < 7 s.s.s.s.d.s.s.s.s.s.s.d.s.s.s.s.s.s.s.s.s.s.s.s.8 Q..X.X.X.X.X.X.X.X.X.X.X.X.X.X.X.X.X.X.X.X.X.X",
"j.j.j.j.j.j.j.j.j.j.j.j.j.j.j.! z 3 7 8 8 f.u.d.s.d.s.s.d.d.d.d.s.s.d.s.s.d.f.r @ }..X.X.X.X.X.X.X.X.X.X.X.X.X.X.X.X.X.X.X.X.X.X",
"j.j.j.j.j.j.j.j.j.j.j.j.j.j.j.j.j.k.{ } ( T U I e r r r r r r r r r r r r 3 b ( ..|..X.X.X.X.X.X.X.X.X.X.X.X.X.X.X.X.X.X.X.X.X.X",
"j.j.j.j.j.j.j.j.j.j.j.j.j.j.j.j.j.j.j.l.j.j.j.j.l.z.l.l.l.l.Q / l.l.l.^ k.k.l.Q w..X.X.X.X.X.X.X.X.X.X.X.X.X.X.X.X.X.X.X.X.X.X.X",
"j.j.j.j.j.j.j.j.j.j.j.j.j.j.j.j.j.j.j.j.j.j.j.j.j.j.j.j.j.j.h.Q j.^ F N m / h.{ J..X.X.X.X.X.X.X.X.X.X.X.X.X.X.X.X.X.X.X.X.X.X.X",
"j.j.j.j.j.j.j.j.j.j.j.j.j.j.j.j.j.j.j.j.j.j.j.j.j.j.j.j.h.h.h.j.] h ] k.) c b q.}..X.X.X.X.X.X.X.X.X.X.X.X.X.X.X.X.X.X.X.X.X.X.X",
"j.j.j.j.j.j.j.j.j.j.j.j.j.j.j.j.j.j.j.j.j.j.j.j.j.j.j.j.h.Q Q m v / h.j.l.[ _ L..X.X.X.X.X.X.X.X.X.X.X.X.X.X.X.X.X.X.X.X.X.X.X.X",
"j.j.j.j.j.j.j.j.j.j.j.j.j.j.j.j.j.j.j.j.j.j.j.j.j.j.j.j.Q { h ] l.h.h.h.h.h.j.&.F.}. X.X.X.X.X.X.X.X.X.X.X.X.X.X.X.X.X.X.X.X.X.X",
"j.j.j.j.j.j.j.j.j.j.j.j.j.j.j.j.j.j.j.j.j.j.j.j.z.z.z.j./ # ' h.h.Q h.j.j.h.l.j.] ,.W. X.X.X.X.X.X.X.X.X.X.X.X.X.X.X.X.X.X.X.X.X",
"j.j.j.j.j.j.j.j.j.j.j.j.j.j.j.j.j.j.j.j.j.h.h.{ c ( z ` c F k l.Q l.D N c ] Q l.~ l.) F. X X.X.X.X.X.X.X.X.X.X.X.X.X.X.X.X.X.X.X",
"j.j.j.j.j.j.j.j.j.j.j.j.j.j.j.j.j.j.j.j.j.h.l.M ^ j./ @ ' k.N { / n B K ^.b.) k ' h.h.} b..X.X.X.X.X.X.X.X.X.X.X.X.X.X.X.X.X.X.X",
"j.j.j.j.j.j.j.j.j.j.j.j.j.j.j.j.j.j.j.j.j.j.j.m  .Q h.n }  .K } l ) ` Y.[.;.c ! j.j.j.j.$.^..X.X.X.X.X.X.X.X.X.X.X.X.X.X.X.X.X.X",
"j.j.j.j.j.j.j.j.j.j.j.j.j.j.j.j.j.j.j.j.j.j.j./ v ~ Q Q Z v c A l.` J.|.b.b Q j.h.j.j.j.Q +.'..X.X.X.X.X.X.X.X.X.X.X.X.X.X.X.X.X",
"j.j.j.j.j.j.j.j.j.j.j.j.j.j.j.j.j.j.j.j.j.j.j.j.{ x / j.h./ B / B G.!.1.] Q h.h.h.j.j.j.j.] 5.'..X.X.X.X.X.X.X.X.X.X.X.X.X.X.X.X",
"j.j.j.j.j.j.j.j.j.j.j.j.j.j.j.j.j.j.j.j.j.j.j.j.h. .b j.h.l.x N.].G._ Q Q h.h.h.] j.j.j.j.h./ -.}..X.X.X.X.X.X.X.X.X.X.X.X.X.X.X",
"j.j.j.j.j.j.j.j.j.j.j.j.j.j.j.j.j.j.j.j.j.j.j.j.h.Q l / h.h.+.'.^.S l.h.j.Q Q M ( j.j.h.j.j.j.] !..X.X.X.X.X.X.X.X.X.X.X.X.X.X.X",
"j.j.j.j.j.j.j.j.j.j.j.j.j.j.j.j.j.j.j.j.j.j.j.j.h.h.W ! h.h.^ w.x.{ h.h.h.h.M ) j.j.j.l./ j.j.Q 2.]..X.X.X.X.X.X.X.X.X.X.X.X.X.X",
"j.j.j.j.j.j.j.j.j.j.j.j.j.j.j.j.j.j.j.j.j.j.j.j.h.j.W ! j.j.h.{ + + ] j.Q ( m j.Q j.h.( S h.h.Q z.H..X X.X.X.X.X.X.X.X.X.X.X.X.X",
"j.j.j.j.j.j.j.j.j.j.j.j.j.j.j.j.j.j.j.j.j.j.j.j.j.j.` W j.j.j.j./ ) @ ` j.b l.l.j.Q m m Q h.] ' k.A..X.X.X.X.X.X.X.X.X.X.X.X.X.X",
"j.j.j.j.j.j.j.j.j.j.j.j.j.j.j.j.j.j.j.j.j.j.j.j.h.{ 9.B Q j.j.j.Q j.{ B $.N j.j.j.) ( h.h./ k { h.<.|..X.X.X.X.X.X.X.X.X.X.X.X.X",
"j.j.j.j.j.j.j.j.j.j.j.j.j.j.j.j.j.j.j.j.j.j.j.h.^ 3.[.A.Q j.j.j.j.j.j.j.j.b ! h.! M / h.l.c W Q h. .!. X.X.X.X.X.X.X.X.X.X.X.X.X"
};
