/* XPM */
static char *ca830ce66dea4cc1c85e8e050e5175e2[] = {
/* columns rows colors chars-per-pixel */
"64 64 248 2 ",
"   c #020102",
".  c #0A0504",
"X  c #070806",
"o  c #0C0906",
"O  c #0D0B09",
"+  c #120B06",
"@  c #1A0C05",
"#  c #130E0A",
"$  c #16110B",
"%  c #1B130D",
"&  c #171512",
"*  c #1D1611",
"=  c #1D1914",
"-  c #22160D",
";  c #24190F",
":  c #291A0E",
">  c #321E0E",
",  c #241B13",
"<  c #221A15",
"1  c #2A1E13",
"2  c #2D2115",
"3  c #27221A",
"4  c #2B231B",
"5  c #332315",
"6  c #3A2616",
"7  c #3B2817",
"8  c #32261B",
"9  c #35291C",
"0  c #3B2B1B",
"q  c #3F301F",
"w  c #2C2721",
"e  c #352C22",
"r  c #332B25",
"t  c #3B2E22",
"y  c #3C3124",
"u  c #3D352A",
"i  c #3D3730",
"p  c #412917",
"a  c #432D1B",
"s  c #44311E",
"d  c #4B331E",
"f  c #52361E",
"g  c #433323",
"h  c #4A3623",
"j  c #493727",
"k  c #4C3A26",
"l  c #433629",
"z  c #4A3728",
"x  c #45392C",
"c  c #4B3C2B",
"v  c #563B27",
"b  c #543C25",
"n  c #5A3D24",
"m  c #533E2A",
"M  c #463E33",
"N  c #4A3E31",
"B  c #603E26",
"V  c #4D402E",
"C  c #5C4126",
"Z  c #55422C",
"A  c #5B442C",
"S  c #5D472C",
"D  c #4D4134",
"F  c #464138",
"G  c #534433",
"H  c #5B4532",
"J  c #554837",
"K  c #5C4A34",
"L  c #5C4C3B",
"P  c #5D513D",
"I  c #644327",
"U  c #63452B",
"Y  c #634A2D",
"T  c #6B4B2C",
"R  c #734E2D",
"E  c #78562F",
"W  c #644C33",
"Q  c #6B4E32",
"!  c #614E3A",
"~  c #6E4D39",
"^  c #655135",
"/  c #6C5235",
"(  c #65523B",
")  c #6B543B",
"_  c #6E593D",
"`  c #735333",
"'  c #7A5835",
"]  c #725539",
"[  c #745A3D",
"{  c #7B5C3C",
"}  c #7C603E",
"|  c #574D41",
" . c #5C5143",
".. c #645442",
"X. c #6A5642",
"o. c #6D5A43",
"O. c #685A48",
"+. c #735D43",
"@. c #795E42",
"#. c #725D49",
"$. c #6D5F50",
"%. c #756246",
"&. c #7B6344",
"*. c #74634C",
"=. c #7A644A",
"-. c #7C694D",
";. c #726653",
":. c #766753",
">. c #7E6B53",
",. c #86572D",
"<. c #825D38",
"1. c #83623D",
"2. c #8C653D",
"3. c #966A3B",
"4. c #A3713F",
"5. c #805F40",
"6. c #836443",
"7. c #856946",
"8. c #8C6A45",
"9. c #846648",
"0. c #846B4B",
"q. c #8B6D4B",
"w. c #946D45",
"e. c #8F7146",
"r. c #8D714D",
"t. c #997345",
"y. c #94734C",
"u. c #9B754A",
"i. c #9B7A4E",
"p. c #836D52",
"a. c #8A6E52",
"s. c #836F58",
"d. c #936F54",
"f. c #847155",
"g. c #8C7354",
"h. c #8F7953",
"j. c #84735B",
"k. c #8C755B",
"l. c #8C795C",
"z. c #937553",
"x. c #957656",
"c. c #947954",
"v. c #9B7B53",
"b. c #947C5B",
"n. c #9B7D5A",
"m. c #A57B4B",
"M. c #B47F47",
"N. c #A37D53",
"B. c #A47E57",
"V. c #887764",
"C. c #8C7C62",
"Z. c #927C61",
"A. c #977F66",
"S. c #9A815A",
"D. c #9C815B",
"F. c #A48254",
"G. c #AE8653",
"H. c #AA8455",
"J. c #A4835C",
"K. c #AB855A",
"L. c #AB895C",
"P. c #B78A57",
"I. c #B18B5C",
"U. c #9C8463",
"Y. c #958368",
"T. c #9B856B",
"R. c #9C8A6A",
"E. c #978973",
"W. c #998D72",
"Q. c #A38563",
"!. c #A68665",
"~. c #A48964",
"^. c #AB8C64",
"/. c #A48D6B",
"(. c #AB8D6A",
"). c #B28E65",
"_. c #AB9168",
"`. c #AD936C",
"'. c #B39264",
"]. c #BB9464",
"[. c #B3946B",
"{. c #B9976B",
"}. c #BB9A6C",
"|. c #A48D71",
" X c #A79476",
".X c #AC9573",
"XX c #AC967B",
"oX c #AD9A7B",
"OX c #B39672",
"+X c #B59B74",
"@X c #BC9D74",
"#X c #B49778",
"$X c #B39C7B",
"%X c #BA9D7B",
"&X c #B9A37A",
"*X c #BCA37B",
"=X c #D0914E",
"-X c #C59559",
";X c #C39A69",
":X c #C19D73",
">X c #C29E78",
",X c #C9A36D",
"<X c #DBA965",
"1X c #C4A374",
"2X c #C3A47C",
"3X c #C7A87B",
"4X c #CCAB7C",
"5X c #D2AA78",
"6X c #D7B278",
"7X c #E7AD68",
"8X c #AC9D86",
"9X c #B59E82",
"0X c #BCA382",
"qX c #B9A687",
"wX c #B6A78A",
"eX c #C5A786",
"rX c #C3AA83",
"tX c #CBAC84",
"yX c #C3AB8C",
"uX c #C7B289",
"iX c #CBB48D",
"pX c #D4B587",
"aX c #C6AF93",
"sX c #C5B394",
"dX c #CBB593",
"fX c #CCBA99",
"gX c #D5BB95",
"hX c #E3BC83",
"jX c #CBBBA2",
"kX c #D2BCA3",
"lX c #D8C29B",
"zX c #EDC78D",
"xX c #EBCA9A",
"cX c #F6D49D",
"vX c #D3C2A4",
"bX c #DAC5A4",
"nX c #D9C8AB",
"mX c #DACDB1",
"MX c #DED3B6",
"NX c #E4CCA7",
"BX c #EBD2AB",
"VX c #F9D7A2",
"CX c #E8D6B8",
"ZX c #E9D6B8",
"AX c #F9E2BC",
"SX c #ECDDC2",
"DX c #F4E6CE",
"FX c #F8ECD5",
/* pixels */
">.g 9._ L.c._ h.@X].`.Y.c.F.B.!.B.p.p.z.[.8.-X<X<X5X}.).3XpX6X1X_.O.x &.7.~.y.W ^.@X]._.Y.v.K.B.!.B.:.a.i.[.w.-X<X<X6X'.}.4XpX6X",
"K M.-X^ r.h.S._.F./ Z E H.}.OX9X(.v.8.1.E -XhXzXcXcXcX6Xr./.@X'.k.Q =XK.] a.q./.L.c.^ Z 1.L.{.+X9X!.7.m.` 3.<XhXxXVXcXzX,X0.OX*X",
"' G.:Xg.*.h.3X6X-.$ s Q {.eXtXeXqXZ.W Q m.5XxXCXAXCXxX5XM.5 5 ^ o.1.P.1X:.o.L.pX4XV , d 1.&X2XeXyX9Xp.Y ] P.6XNXAXAXCXlX,X3.$ 7 ",
"W q.&X#X;.e.F.F.0 1 7 q >XOX(.).qXZ.t n G.pXmXCXSXCXlXr./ ^ , 4 8 ] N.&X`...i.F.e.; 5 9 / 2X).(.OXqX>.1 ] P.fXmXZXSXCXyX1.' V 4 ",
"8 { +XOXD.P l q # 7 g W H % 1 n.(.1 1 W ! $X*XOXrXgXoXK _ ^ y K 4 y e.&XOXb.V d 7 o s g _ h # a ).g.< 6 W #.rX%XOXuXlXl.^ _ S x ",
"& g n.[._./.S.P < a Z A % 1 < a.m % k :   ' ].8 . +.D.L S.] 9 ^ x = Z J.`.`.R.f.G = v k k < 4 g p.c . v .   N.N.3 @ f.f.%.D.W y ",
"& 8 q.OX.X XW.( 8 7 b ' 8.q.U...1 ) v + % 1 i.8 X   h V _._ 2 Z 9 & V h.+X/.oXS.A 4 a v <.r.8.(.0 s W f + & g u.X     z _ ^.S 8 ",
"# t ! ( f.S.e X   2 k U 6.5.N.!.9.U 2.<.v % W (.Q 5 X.V b.Z * $ o & V ( ( Y.l.      a h Q 8.@.(.B.+.j t.R v % 9.S.S 8 ( _ h.t * ",
"g H   3 4  XL c D u ; 2 2 Z y.^.x.G 6 H 6.8.d.Q.J.'.'.Z ^ 9 % 9 t S y # 2 c XXh D D r , > 1 U B.!.9.x a H w.z.n.D.J.[.v.G W = < ",
"% J f.|.p.$ H U. Xb.b.l.;.( N P  .r o r z.;X5Xd.-.l.J 3 9 = $.U.k # X.l./.o.O X.R. Xk.D.j.;...c O.N w # N B.;X>X=.g.s.c 4 9 w p.",
"9 y U.-.K +.~ F.u.F.L.i.q.&.0.[ P K D e #.T.A.@.+.; * 4 u K e.L.&.* J R.+.! @.` F.i.F.J.i.0.=.9.~  .! M g j.T.Z.9.! & * e u ( i.",
"9 9 = <.=X7XG.t.' 2._ V 7.;X,X[.k.L r < h !.>XeX%XL.Y } '.} 8.N.o.3 9 4 4.=X7Xt.t.E 7.^ Z x.,X;X).p.N 4 & W [.>XrX{.N.m i.J.] u.",
"W N T M.P.:X{.p.H e % Z [.dXgX>XA.) e a m.2XeXaXyX#Xu.T 7./ 7 Z V W x ,.M.].:X).%.Z 4 ; [ @XgXiXOXd.J w B I.2XeXdXqXOX2.E { W s ",
"k.G I U v.L.).(.k.O.4 r.*XfXfX9XT.! t Y B.eXtXtXyXyXi.R - - n b.!.>.S C ` J.^.[.~.f.J 8 D.yXkXdX%Xk.N g E [.eXtXyXyX*Xw.Y % % ] ",
"f.Z C k +.).).[.|.V.c v..XaXyX9Xk.D y 6 d.eXJ.x.`.Z.7 b s   9 D. XO.n C h r.L.[.[.|.:.H D.$XsXqXXX>.x g 9 ~.2Xv.n.#X[ 0 C 5   Z ",
":.C [ S @.).5.{ x.s._ J.(.(.!.n.X.e 0 6 @.( + 1 !.[ o + v . 2 g.R.O.W +.j c.J.@.9.z.:.&.L._.(.!.z.K w a 8 q.c o j ).Z o % b   g ",
";.S r.Z W 2   2 <.Y %.f.$XD.n.7.K 4 s k Z % 4 x p.8 ] ` ` a 8 n. XP ] g.a W # X 6 8.Z &.U..XS.c.=.G 1 j s b * 4 o.o.h ] Q ' . m ",
"u S } s 0 $ $ 2 ` 9 $ % ( 8.+.K G , s Z T S q.n.>.m ` U <.d 2 % 2 u / { 0 1 $ $ f Y 9 O = &.7.) K z , m V R / e.~.H m ' ` E t < ",
"3 d / s } C R r.0 o.=.c &.%.O # , 8 6 k ` u.8.1.1X;Xt.Z a 0 < % $ 2 C Y n [ Z ' r.% -._ j g.Z o # 2 1 a Z E y.6.y.4X].6.h a t + ",
"S 1 S A q.c.{ 7.] S U.g.9 C Z 0 1 2 ; k 5 0 7 ~ g.k.c.I.U W s.$Xc.j 9 S W y.e.{ 7.^ _ ~.&.9 W g t 1 , 5 g 7 7 y ] x.k.n.F.m ~ Z.",
"x r.].E r.{ W 8.K.] 9 { H m W [ E q % # K S.Y c S y.r.F.C _.[ u g K S.P.Q y.] Y v.N.! s &.c H ^ { ~ 7 $ % %.i.A Z W r.F.t.Y [.C ",
"&.J.i.b ^.r.Z ( -.) g z.g._ h Z o.J F.I.r.0.c + 5 Y _ W 9 h.[ X = c.J.e.b +X^ S +.@.! A c.0.W g L o.^ F.L.f.&.y o 6 _ / A s U.k ",
"F.`.c.8.h.7.r.F.F.8.^ r.c.J.^.'.L.%.}.5X4X4X'.[ J.pXcXzXpXi.J P W F._.e.7.h.' S.F.m.&.) r.S.L.^.).J.0.1X4X3X4XS.&.'.zXcXzX4X6.L ",
"R y.8./ '.6XxXzX6X,XL.S Z f s s 0 k [.}.I.v.y.4XzXAXAXxXzX,XF.*Xo.` i.6.] ,XzXxXhX6X;XN.b C k a s 7 W }.].L.i.m.pXxXAXAXxX6X;XU.",
"6 > 2 '.cXcXxXxX,X,X^.W , 9 ] ] [ 3.{.&.k 5 n 4XBXFXFXSXBX3Xy.^ c 5 > s 4XcXcXcXhX1X;XQ.m * l [ ] ] m.'.) h - <.pXCXFXDXSXNX&X1.",
"/ : Z iXBXbXNXNXuX&X} k , x n.w.{.G.F.t 1 . 5 +XSXFXFXCXnX&X=.2 h )   -.lXNXNXNXbXyX{./ t , ^ n.w.;XI.z.4 ; . b iXDXFXDXMXnX`.) ",
"a o _ iXnXlXnXlXsXW.h 9 , h (.N.q.F.E V v % % U.MXMXSXmXvXoXV % 6 p   h.gXnXlXnXgXyXC.e 8 ; ( ).y.i.N.n S k + 0 $XMXSXMXmXvXD.9 ",
"2./ _ *XdXlXrX3X+X-.< y < H [ a 9 Z _ %.U 1 , U.fXnXmXnXuX0.; 9 1.2.Z h.rXfXiX0XeX.X( 1 t ; ) ^ 7 t G +.] v % t .XvXmXnXvX0X^ & ",
"1Xe.&.&XiXrX&X[.Q.H < t < 1 + o , 3.<.# 6 a c n.wXvXwXlX.X_ $ o.6X}.) S.rXuX*X&X(.n.g 1 t 1 ; # o 6 m.n # a 5 K /.vXvXwXuXD.Z $ ",
"*XP f.+XvX&X+Xf.@.] < 1 < H 5 s Q Q - + # B 0   = 8X&XR.-.K = -.4X_.V D.&XvX&X`.>.@.W ; , t c 6 h ' m ; + - I 2   y wX&XY.%.c 3 ",
"5   Z   9 S.J     1 1 1 4 r.8.6.q.; 5 p > v z @ % >.Y.X X o K S.r.X 3 V   V S.9     0 ; 2 c z.<.8.{ ; 7 p p n 9 $ + W.O.O   $ ^ ",
"V X P g V R.[ y N m H 1 % ! { ~ i.8.R v ,.a .XyXc.%.J O.o.V u S.h.2   P c J /.^ t N m g < < +.] @.y.{ R U ,.c *XqXe.O.K %.( D x ",
"6   f.fX Xe G f.0.y.g o &.k.U ~ B.t.<.g 5 + t W _ e , f.$X.X1 k d 2   |.sXU.< ( p.a.8.8 . b.&.W { B.w.] 0 1 + m H / w t S.0XY.$ ",
"~ m , b &.b.b.=.0 1 5 Y `.eXN N p.k.m % # e 3 l x.$Xg.0 9 9 R t.q.Q z 1 k g.Y.c.) 0 , h Q *X Xt X.>.9.z . * e 4 m !. X=.9 9 a E ",
"x.#.Y v.&.2X+XZ.8 1 d 1Xb.J L L N z < c z.^.#.G z.Q.0.J % , g.#XJ.d...{ z.c.*X`.f.8 % &.#Xp.D L | N g < S n.!...L n.Q.@.x O 0 J.",
"B.X.I.:XY.W.Y.P G t 5 H o.T.XX|.d.| Q P.3XtX.X:...$.| u X % (.2X{.n.~ {.:Xj.E.Y.c G 5 a H 0./.8X!.a.N 5.;XtX3X!.$.O. .| e O g %X",
"9.N <.+XqXXXV.#.o.h $ v N.9XeX%XA.! u.].:XeXeXXXV.L x r % H o.K Q &.j t.%XqX|.j.o.) 6 # ` !.yX9X#Xd.( m.].2XrX9XXXj.J u 9 * ( o.",
"@.! p n.0X$X.XU.z.n % R y.XXOXq.H n y.N.^.%X*XOX~./.;.9 9 2 % * : q.y f (.0X$X|.U.q.s - ,.i.9X(.9.z / u.B.(.0X*X`.U. XK 9 9 < * ",
"+.* % ] _.XXoX.XQ.] 1 I 6 g +X] X 7 ~ R [ a.v.D.D.S.9 2 b.c ] ( p.K % 2 0.`.oXoX.Xb.S > U 1 ) {.c + h ~ E 9.z.v.D.D.k.% 7 b.Z [ ",
": < - H Q. X X/.%.a a h + 0 0 a.y 1 6 5 h ] 6.[ [ 0.( f.(.H a.y.k., , < _ (.oX|.R.( 0 b 5 # g h p.1 1 7 5 m { &._ [ f.H U.D.L e.",
"!.A 6 h 1 + o.#.% , 5 I W { 1 O.f.r 1 9 1 h k o X W r ^ b $ A v.1Xv.c a g - , >.H ; , b f ] ~ 1 p.o.4 2 9 ; C 0 o % ^ 9 / s , Y ",
"x.) 6 5 @ 5 _ #.Y k.b.2.` ` i.+XB.g < h %.{ 1 5 Z ] h z.q.8 m @.x.d.W p % - > p.L ) c.z.2.Y { F.>X7.9 : P [ ` $ 9 ( A H n.&.1 A ",
"=.| . ] /.B.Q = h C K S (._ q.z.+.2 _ (.`.c.n { W A q.n.z.| y x :.#.N @ q.(.y.v < C H C %.D.[ z.x.H 9 0.'._.7.Y <.A Q y.U.0.G l ",
"s 8 % W n 6 ] g.[ _ L.(.$XG l ( =.!.+X[.'.v.d a > 6 #.#.j.( ` { A a 1 # W A p { k.^ g.v.+X|.u D ( p.`.+X`.'.7.s 0 5 d +.=.j.H ] ",
"L 6.o.] A g 7.r.[ S $.G L ) @.9.p.%.O.&.} L.{.[ < l g l % ; 5 Z m X.6.( ] v c r.q.W ) ..D P ) +.q.0.+.O.&.8.'.'.U < l x l # : 6 ",
"x.v.) &.9 , c g G %.r.k.+.<.u.G.:X}.n.L % g.I.e.r :.A.V._ , c Z.k.n.y.X.o.2 8 h c K &.c.f.[ 2.m.).:X[.g.V $ D.L.{ i V.C.p.W = L ",
"!.m.u.L.D.~.{.tX#Xb.) t R t.}.eXgXdX*Xb.0 5 Y b O.XX9X$Xv.I # #.b.).t.N.K.v.(.}.uX/.k.K g ,.N.1XtXgXdX+X0.< h U h >.9X9XXXu.a % ",
"Q m.@X;XtX[.B.8.O.;. .1 Y z.0XdXkXkXuXS.6 o 3 e W q..XR.{ T   l z.T I.{.1XtX].v.7.O.;.F 0 T U.qXdXkXkXyXw.% X 3 u W v.XXb.' n   ",
"#.F.I.N.] ) l.XXyXjX X3 g h.&XyXfXjXsXk.: % 2 $ $ H `.h @ n < r e -.G.'.y.Q +.A.oXwXjXY.< n R.&XaXkXjXqX+.% < < $ # @.!.- - n * ",
"b.&XH.b ..Z.{.tXgXbXoXu 4 / ~.&XyXwX$Xr.2 4 9 l H b.8 b 2 p 7 1 J `.}.u.s *.Q.:XuXlXvXY.< 9 7.~.0XqXqX.X{ * t 1 c ^ k.5 b 1 h 1 ",
"Q.{ T y l B.OX>XuXlXqXP : S r._.oXoX#Xr.0 9 8.B.y.x.g / ' ` p ..pX@.} C r K !.@X3XuXlX9Xl 2 ] v.`.XX$X.X@.2 k y.n.n.=.s <.` ` , ",
"p.3 u 9 t a.!.#X3XiXwXP % Z 7.U.U.|.( s s a h C 1.3X{.6.a n @ N k.+.< u 8 c x.|.&X3XfXW.V ; ^ r.U./.R.H a d 6 v U i.2X).] h f + ",
"g 3 3 w U ! r < f.j.& & k 2 o * o.( $ + - p , s W a.V.X.: @   4 N t < 8 w ( N 1 e R._ = = k < o 8 >.x $ o 5 5 - v +.d.s.! @ @ . ",
"% + r 1 y 4 w w h.W.j. X>.2 0 s X.s.m &.z.7 * x J z ..N   . + $ % @ # e < g 8 w u D.j.Y. XP , s s :.%.C 0.q.- , N N N | x .   + ",
"` l < 8 +.n.Z.Z.J x /.oXx r.Q.r.2 2 { b._ 1 &.0XwX8X8XA.N w ..*.@.Q e 1 t 9.n.h.l.V P oXR.j c.Q.&.% s 6.n.m e k.yXqX8X8Xj.t l O.",
"n.K W h g v B p.U.&Xh.o   l A 0 Y +.] 6 * r ~.nXNXMXSXkX+X! E.yX9Xa.! m b g H V g./.&X[ X O Z b s K 0.T 2 = c +XNXNXCXMXfXQ. .8X",
"R.&.r.I.R r t Z.&XrX0.& w = % g _ S.y.Z 3 < .XNXBXCXCXmX1X@.E.jXaXn.0.h.F.b e g /.%XrX! = w = * z 9.n.8.y < 4 iXNXBXBXCXvX;X( 8X",
"~.=.^ K.' G J J Y.E.J i L F 3 g Z Z m g y y +XT.q.@XfXvX].7.:.wX&XD.+.[ G.Q G J L E.C.F M L l = j Z H m y u ^ %XZ.d.2XnXdX).! A.",
"R.%.z b Q k.V.>.J 3 M *.f.+.c = u V 2 4 G ) 4 .   n.lXc A { ;.oX8XY._ g h &.j.l.#.F 4 G >.0.o.u < M x % y G ) . . . %XyX9 / Q V.",
"S.O.p . $ z.z.J.Y.L %.>.b.7.c & * 2 o e G +.& u 3 R.X.    Q ..Y.oXh.L 2 o 0 v.b.L.l.P %.V.c.&.9 % < < # x D _ 3 i l T.L   @ ~ *.",
"*.C : % - M.b 7 8.-.2 $ 9 %.; $ = % 2 V H i.[.[.rX$.c 9.t Y     e X.B - % a M.a d h.%.$ $ V _ # $ % % 9 k K H.`.(.yXy ) +.6 A   ",
"j.E T a % R 1 X % %.V g Z &.S Z u _ '.3.&.{ X.a.2XOX&.9.N.7., a h s.,.B p # ' $ X q +.g g L %.Y c u &.}.1.q._ %.z.pXR.7.8.N.) 2 ",
"3 7 b R s [ [ ;   > l./.%.3 j H t 1.y.[ -.{., J *XpX[.K Z L j.T.@.+ t n T 7 q.A *   6 R.~.( 3 Z V Z 6.u.S D.D.$ _ iX3XQ.c A O.V.",
"! 9 ] 3.H.r.} / oXuX*X3XqX XY.*.O.&.o.%.-.S.>.Z.0XdXwXwXsX*XdXs.H ! 0 <.m.v.0.<.&.wX*X3XqX&X Xl.+.O.%.%.%.f.b.j.T.0XdXwXsXqX*XyX"
};
